P2
# Creator: Mapra
96 95
255
 157 167 190 195 186 156 170 154 167 154 154 174 179 144 163 146
 141 143 142 149 160 143 164 152 141 155 141 142 140 139 138 144
 132 131 158 136 144 130 163 142 158 146 166 161 162 169 159 177
 162 169 152 140 157 165 132 167 156 179 167 180 157 144 146 141
 176 152 156 162 145 161 143 158 165 161 174 177 142 178 189 194
 169 188 215 177 175 169 162 140 151 152 141 157 132 166 154 160
 227 170 176 180 155 160 212 173 170 157 197 203 173 174 217 179
 153 132 159 115 175 170 144 149 161 145 171 144 172 151 144 149
 157 146 138 167 157 151 150 184 172 180 197 177 170 164 167 171
 176 169 149 163 166 149 162 126 156 152 166 165 181 137 168 165
 161 161 189 157 174 175 168 150 157 142 129 165 176 207 203 179
 221 215 205 123 152 176 151 186 183 161 175 165 196 150 211 211
 154 177 179 168 178 154 171 183 156 175 175 148 185 177 158 169
 150 144 150 131 156 116 104 133 126 152 119 134 117 106 125 134
 151 169 152 137 160 117 136 163 154 169 178 173 198 196 205 176
 191 184 211 203 170 172 155 181 156 186 183 177 150 159 165 145
 148 178 173 168 145 170 130 121 140 181 156 159 157 165 162 100
 137 130 185 139 124 151 139 146 156 154 173 151 127 163 159 178
 158 144 148 147 153 162 187 143 188 151 170 163 176 172 161 167
 170 146 193 187 113 137 111 130 114 125 168 102  98  97 113 151
 141 200 129 133 188  83 132 105 173 208 223 204 193 157 181 164
 125 124  93  96 166 103 129 138 142 183 176 169 108 139 128 110
 138 165 133 157 108 132  85 105 155 163 163  35  57 197 149 110
 136 147 143 150 112 118 198 165 117 164 152 154 141 158 194 163
 176 165 152 134 148 169 189 135 161 138 167 155 157 152 152 165
 131 178 150 136 163 162 142 146  49 139 114 146  88 132 152 172
 160 125 144 147 177 147  21  78 219 195 156 149 161 127 115  71
  88  96  45 119 122 118 114 166 143 137 162 151 113  95 120 133
  85 107 112 122 117 121 130 144  71 151 171  24  32 179 187 143
 135 107 170 126 132 176  90 123 178 157 180 164 148 167 140 150
 144 188 170 142 176 164 156 145 136 155 147 108 138 132 119 127
 151 156 148 143 146 149 151 149 132 162 182 135 114 141 131 145
 127 147 155 167 168  79  19  18 200 174 138 138 140 137 136 131
 132 132   8 190 154 151 197 115 146 144 157 145  79  95 114 134
 111 140 142 138  94 100 114 109 144 165 129   3  32 179 202 135
 149 146 136 135 131 145 135 133 151 161 131 154 154 177 200 175
 184 149 147 154 159 154 170 126 178 143 152 141 122 134 158 108
 163 132 142 162 163 139 139 151 131 160 127 122 100 114 136 144
 144 173 195 151 127  25  34   4 190 163 124 126 125 160 140 141
 117  65 124 163 155 141 184 127 125 154 150 138  38 112  99  96
  89 119 121 148  75  99 127 132 155 121 166   9  25 183 155 141
 135 123 134 144 115 142 152 154 143 116 139  79 130 149 173 140
 168 174 166 167 179 126 122 143 135 130 125 131 133 113 144 136
 162 179 167 130 168 160 132 161 146 144 156 120 126  91 116 133
 178 157 133 131  73  13  12   6 171 185 176 157 103 140 123 155
  39  22 122 139  87 177 113 153 125 131 163 144  86 119 118 106
 110  93 125 131  87  52 125 133 150 162  87   4  17 118 210 122
 128 133 136 129 147 172 111 148 165 145 110 142 133 169 168 169
 176 141 163 131 153 148 154 147 137 103 111 102 136 118 112 130
 150 166 133 169 146 134 148 146 147 167 121 143 133 152 142 176
 159  95 131 130  24   6  15   8 118 194 158 116 109 125 102  78
  43  58 129 125 136 148 103 145 120 156 161 126 109 116 116 108
 112  83 135 155 125 149 134 167 129 139  83   4  27 104 183 156
 134 158 144 138 125 146 124 111 130 125 152 110 146 173 147 157
 158 155 168 171 150 159 129 130 158 120 113  96 108  94 131 132
 159 154 161 163 170 166 155 161 134 134 124 135 146 156 177 178
  87 110 131 122  23  38   7   4 129 174  51 124 115 120 136 153
 100 103 154 155 162 169 135 159 151 157 156 165 120 133 124 119
 169 154 132 149 124 121 131 134 133 152 128  12   6  45 174 176
  98 107 108 153  92 150 153 151 136 119 157  84 145 150 175 166
 159 134 154 148 160 136 147 171 143 123 133 143 134 138 118 140
 169 149 152 170 137 158 127 139 144 143 137 114 144 156 159 177
  80 103 118  30  28   8  20  12 107 182 167 158 171 153 154 148
 138 155 165 124 117 158 155 129 155 165 134 121 124 122 109 134
 119 130 141 147 132 143 129 156 155 147 141  15  22  34 175 138
 152 164 140 135 167 143 122 155 108 129 160 136 142 152 175 162
 129 155 193 141 152 126 151 144 159 137 132 148 128 151 102 142
 147 172 158 156 138 157 158 144 162 119 125 162 144 165  75  94
 138 146 136  95  84  32   5   9  96 180 164 157 118 140 134 183
 121 108 130 169 165 146 149 145 170 140 154 111 109 106 145 111
 149 190 142 149 139 125 145 155 148 146 168  19  21  14 184 125
 116  90 128 139 169 112 125 129 159 167 155 158 132 138 161 145
 138 163 168 178 154 126 120 153 139 135 130 144 126 155 141 146
 141 161 163 163 126 156 138 153 135 135 162 150  72  70  84  61
  81  73 116  95 113  14  18  15  80 212 167 203 179 170 169 142
 121 106 127 181 175 143 154 163 160 175 175 128 162 125 125 129
 159 138 141 105 121 161  89 125 157 154 167   6   8   8 200 126
 159 138 144 157 111  74 100 155 157 130 130 132 155 118 151 115
 178 151 130 158 188 144 129 141  74 113 133 151 136 140 145 132
 133 149 143 137 144 182 138 142 132 136 136 104  97  94 130 111
  98 136 108 132  36  22   4  18 107 214 191 165 173 163 168 126
 146 160 156 142 131 147 167 156 157 132 141 166 131 125 135 143
 125 138 126 138 162 177 137 143 159 158 153   6   9  17 196 113
 154 141 132 123 118  71  96 169 142 148 159 180 176 136 149 139
 159 176 170 130 190 156 144  83 135 171 166 151 134 127 126 151
 120 142 108 134 151 158 178 147 130 106 129 115 120  98  47 134
  85 142 124  93  45  17  10  12 117 188 170 200 155 171 129 181
 138 142 153 163 167 157 151 166 136 134 108 134 123 121 110 157
 157 145 146 132 133 158 119 155 138 163 156  31   7   6 175 130
 160  91 150 166 144  99 141 110 131 164 149 159 112 113 109 136
 146 165 148 163 154 104 123 179 120 147 126 106 125 134 148 165
 137 137 136 166 149 134 161 174 145 117 127  95  92  85 128  89
  93 145 106  45  45  15  12  10  97 218 183 178 164 148 165 142
 120 142 151 131 141 153 132 134 155 144 143 143 133 125 129 130
 134 142 118 153 170 172 164 157 169 161 111  16   9  16 174 132
 162 121 113 138 103 113 141 166  96 123 137 125 152 152 147 143
 152 136 133 146 157 131 115 148 117 143 166 125 152 144 137 128
 115 112 135 144 170 163 129 174 137 135  83 114 110 144 111  70
 115 120  85  84 108  20   5  11  96 212 199 195 161 142 137 144
 159 159 134 138 150 140 160 161 124 134 139 151 134 148 141 135
 148 136 159 160 125 132 151 127 121 144  42  10  19   6 148 156
 114 141 130 119 151 140 157 149 137 147 144 167 153 151 142 171
 134 151 159 185 189 145 147 148 124 158 149 123 116 127 151 154
 154 138 148 141 166 143 163 144 102 120 155  92 133 118 110 105
 103 122 112 121  47   8  12  13 105 207 162 185 134 124 142 137
 103 145 136 169 141 157 147 135 161 157 149 156 135 148 147 146
 125 164 156 146 168 153 127 148 161 201 144  10   7  15 156 122
 148 118 114 128 128 141 159  98 169 173 123 171 175 157 163 128
 164 140 171 147 156 156 141 140 119 134 145 140 115 130 151 139
 165 148 157 147 146 137 143 142 128 106 141 123 116 109 147 142
 145 162 123 124  70  19   8  14  95 215 179 155 182 148 198 162
 146 173 155 161 119 161 167 149 136 139 150 178 160 154 136 130
 154 154 160 160 154 159 163 158 161 162 165  15   8   8 148 135
 118 128 147 135 115 104 144 134 158 159 183 170 122 126 128 146
 137 149 146 149 156 134 162 105 137 104 146 122 132 161 151 177
 115 155 122 144 158 152 161 163 135 137 138 122 129 133 129 121
 146 162 156 145 110   7   8  35 106 176 151 195 157 149 169 140
 139 142 152 141 127 149 166 127 119 116 126 158 141 140 138 151
 143 159 140 132 154 153 144 164 173 180 188  26   6  19 153 108
 129 115  95 148  65 132 136 129 182 134 161 121  96 147 139 158
 148 134 178 148 146 168 150 131  83  81 123  88 134 149 135 165
 158 135 127 157 154 146 135 105 128 138 139 105 100 100 118 122
 184 158 165 163  97  11  26   5 102 206 191 119 193 176 169 161
 157 150 171 162 138 142 150 129 151 146 149 170 146 146 155 182
 157 156 162 169 174 174 171 169 182 167 135  43   9  15 152 114
 134 131 110 120 111 143 147 174 133 133 144 149 136 146 172 147
 176 174 131 132 134 133 136  88  93 152 141 128 166 146 155 145
 137 137 114 138 157 134 147 132 139 153  94 107 110 122 109 180
 125 117  57  55  28  30  32  10  97 214 130  70 123 186 131 170
 175 171 164 169 110 137 140 169 172 165 161 171 137 133 138 161
 160 118 150 173 137 155 186 150 106  68  16  29  16  12 163 171
  92  50  48  66 111 145 151 146 131 125 145 143 145 147 155 132
 154 135 110 104  95 111  56  49 131 147  76 111 125 130 154 142
 121 154 109 158 186 172 122 107 127  89  79  93  46  69 106 151
  96 141  60  21  10   8   7  29 152  77  29  41  19  16  50  45
  20  29  35  51  20  49  36  70  73  56  37  36   7  14  26  47
  17  29  11   7  24  19  14  41  26  37   6   5   6  33 171 146
  60  38  88 179  39 128 150 157 140 133 164 114  99 108 140 188
 103 122  79  79  40  53  59 108 112  53   7  98 113 156 144 153
 147 148 162 162 171 125 145 116  98 111 110  61  89 100 130 105
  10  20   9  10  35  12  29   7 143 143  17  15   9  26  17   8
  20  14  22   9  22  31  13  19  16  13  11  28   9  14   9   9
  13  16  15  17  19   9   4   9  13  18   9  14  15  11 121 112
  80 140 176 145 151 100  79 153 132 130  98 130 186 163 178 132
  81  34  60  71  86  36  67  83  83  22   7  49  97  98  97 137
  39  21  41  40 104 101 112  85  94 156  75  82 104 142  15  20
  16  18  12  22   7  22  17  14  76  47  53  47  12   4  12  15
   7  13  14   7   5   8  12  12   7   7  24   5   5  20  13  19
   6  20  28   9  26  15   4   3  16  11   4  31   3  24  30  62
  50  91 102 103 125  68  36 150 141 128 155 155 142 134 101  91
  29  44  34   5  30  18   7  32  18  21  22  22  29  29  22  33
  23  12   9   5  14  15  23  18  17   7  21  21  40  12  24   9
  24  18  20  11   7   7  17  14 122 159 124 131 118  65  41  24
  26   8   4   6  17  21  17  14  37  25  18  10  10  20   4  16
  27   5   8  25  16   3  45  22  11  41  16  21  31  12  55   3
  21  14  44  41  13   9  19  50  63  38  50  49  40  34  17  18
 133  88 116 139  99  94  84  91  62  98  96  56  27  19  16  13
  19  25  24  31  19  20  10  11  13  34  12  20   7  20  30   7
  17  11  58  92 117  95 117 128 166 186 167 135 153 128 145 149
 113  59  11   7  18  21  17  18 128  92  39  36  31  37   6  33
  36  59  50  32  23  45 107  43  22  35  21  33  51 127 145 126
  78  77 104 106  84  85 107 141  70  56  78 102 112 121 120 129
 179 189 191 161 161 187 158 170 135 155 140 118 100  94 111 126
  15  19  20  31  27  28  23  26  35  26   5  19  33   5  21  27
  89  90 121 135 145 138 145 140 171  96 139  88 130 144 150 131
 143 112  93 104 122 123 113 105 109 131 123 148 120 109  80 124
 160 180 168 160 180 159 177 176 178 167 167 184 154 198 153 161
 147 153 153 158 181 193 182 184 180 179 190 189 178 179 179 175
 159 171 183 155 175 189 168 163 158 172 156 153 148 135 156 171
  49  76 124 149 149 110  81  61  34  37  67 128 138 102 150 139
 153 166 147 119 105 151 160 136 180 122 169 148 155 165 150 153
 138 141 144 146 148 147 140 133 163 143  94 135 155 188 164 175
 160 154 176 165 182 161 147 171 148 164 173 198 193 154 175 158
 174 195 207 198 186 196 199 172 173 186 189 173 161 177 200 195
 181 137 156 184 180 171 187 166 156 185 170 168 162 142 151 143
 147 157 180 180 177 156 162 174 161 181 153 141 153 154 177 173
 162 156 147 166 151 170 161 157 148 176 136 180 164 168 149 185
 169 179 177 157 143 145 154 160 147 146 131 166 154 158 161 171
 176 149 205 179 165 188 186 174 161 168 167 155 129 145 163 175
 159 176 163 180 187 145 141 185 163 188 192 182 168 179 203 191
 160 183 119 120 153 171 175 178 152 165 131 141 154 150 170 161
 179 177 174 188 178 174 165 172 166 159 166 120 158  50  22  15
  30  20  63 142 165 149 144 161 158 180 116 179 188 195 156 142
 131 144 158 168 168 167 171 178 168 125 106 158 166 168 189 183
 190 139 181 186 170 159 175 188 189 172 171 142  90 162 120 153
 139 119  61 107 178 124  89 135 142 161 170 184 176 169 185 172
 143 133  90 179 167 159 158 141 176 142  72  88 121 128 164 168
 205 185 145 175 156 166 118 106 117 142 169 174 103 131 126 113
 108 110 149 170 192 181 191 182 162 157 177 176 156 169 188 178
 182 164 155 157 151 138 137 148 134  78  85 169 192 168 172 141
 137 161 158 127 139 136 145 142 149 127 109 100 113 146 178 180
 175 176 162 174 170 159 170 152 157 154 146 165 154 132 147 140
 108 119 163 135 103 122  85 136 126 138  36  18 159 127 143 184
 180 169 131 105 148 137 158 169 179 184 166 170 182 137 167 166
 169 163 177 170 180 158 112 173 147 189 185 177 178 188 202 169
 173 171 139 161 169 154 164 142 171  33  70 158 176 178 154 132
 139 167 156 154 132  99 120 136 118  79 111 118 113 159 165 133
 122 131 136 111 100  95  85 100 107 139 113 129 112 116 130  97
 136 165 159 141 119 135 128 138 135 100  26  10 138 145 158 166
 115 163 162 163 172 167 170 181 190 220 183 201 196 189 167 128
 139 148 195 196 194 192 203 193 208 173 202 206 204 199 171 207
 201 186 170 143 165 181 194 178 177  28  23 145 169 184 189 154
 140 156 155 144 156 163 156 168 155  92 147 159 134 147 140 167
 150 136 144 129 147 121 119 149 151 109 108 137 165 144  73 148
 134 160 189 134 103 152 132 173 121  84  15   5  49 136 185 201
 141 186 159 159 149 173 172 181 175 192 165 200 198 187 180 175
 129 183 190 192 198 196 198 193 184 190 191 199 188 170 181 195
 210 170 168 162 172 189 175 198 163  15  13 136 171 194 184 151
 155 164 165 131 150 169 135 146 181 108 147 127 111 149 131 162
 139 133 148 121 146 103 105 143 122 114 147 135 140 149  81 156
 151 144 149 120 124 179 137 144  43  79  26  35  27 120 153 159
 189 212 176 176 167 189 187 188 205 194 183 189 209 173 192 201
 163 203 180 192 186 197 173 202 200 217 185 191 206 211 225 186
 189 161 151 173 156 178 145 175 135  13  29  96 166 194 156 148
 143 166 167 144 162 170 151 172 157 122 155 143 146 178 144 139
 147 178 196 156 153 123 120 160  91 104 142 173 141 151 176 203
 148 178 117 156 161 140 154 115 133 144  21   9   7  59 156 199
 188 202 186 191 190 195 209 218 198 199 187 169 198 189 185 157
 174 145 174 176 158 193 193 193 185 158 178 172 171 178 157 184
 159 171 161 143 137 157 150 136 124  46  13  29 156 185 170 165
 161 187 169 166 170 147 147 159 144 131 137 150 155 156 152 163
 142 172 174 158 131 126 115 163 120 133 122 144 119 139 164 124
 136 176 152 188 162 121 135 142 169 153  33  11  35   9 149 213
 183 186 177 194 199 197 200 192 157 167 151 163 157 168 153 160
 169 133 184 138 162 171 170 155 172 160 167 170 158 140 138 163
 139 141 165 136 155 120 134 117 140  90   4   8 160 190 193 163
 140 153 137 161 172 154 166 159 144 141 102  95 120 139 159 159
 172 156 138 157 125 130 115 167 124 144 128 113 132 183 159 143
 167 148 167 170 161 162 111 142 134 115  21   7  26  25 146 188
 169 188 181 216 198 200 168 136 160 160 154 168 145 136 134 181
 173 162 177 153 183 163 144 152 174 175 129 145 166 160 162 109
 126  96 144 148 152 105  95 131 153  77   8  19 128 203 165 149
 168 162 164 169 160 155 152 129 137 146 123 108 146 172 152 137
 176 136 126 148 122 127 123 153 150 113 118 138 139 141 111 165
 172 172 175 174 152 140 112 139 145 120  15  19  21 117 181 169
 148 187 164 183 122 158 151 150 138 145 162 139 158 153 161 166
 158 125 123 199 157 158 161 170 158 158 175 157 152 164 146 149
 119  95 125 139  99 126  83 155 153  25  20  10  66 209 116 155
 148 140 175 162 140 159 149 130 152 140 146 143 166 162 131 175
 161 135 153 154 132 141 153 157 140 105 127 156 128 159 173 168
 168 178 172 156 112 133 132 184 166 154  15  22  14 157 175 188
 133 200 206 170 135 172 181 167 159 148 113 113 127 156 142 161
 145 189 154 134 154 122 155 144 143 167 170 167 148 115 127 145
 165 135 167 113 118 139  94 142 161  85  17   7  41 210 192 152
 138 139 161 149 114 104 162 135 160 159 177 134 149 150 134 127
 153 160 125 160 147 188 143 169 143 127 107 153 132 149 168 141
 152 161 165 204 125 162 168 156 172 134  39  14   9 160 163 211
 119 223 167 123 149 190 166 168 178 165 159 157 168 161 156 165
 139 169 155 151 173 138 153 153 163 185 170 157 159 155 152 132
 104 139 125  91 111 126 148 130  90 117  14   9  56 210 181 151
 155 169 175 177 164 142 166 167 158 146 148 142 141 144 140 143
 164 127 103 180 176 133  83 121 169 138 170 145 166 154 156 167
 178 172 178 132 146 167 136 172 146 149  43  12  19 148 181 179
  81 234 151 117 154 151 111 165 151 139 161 163 172 146 159 158
 164 170 171 173 188 157 148 161 177 163 132 149 165 153 137 126
 180 154  70 151 154 147 131 134 158 144  16   5 153 176 174 158
 159 135 140 178 158 149 154 133 179 176 179 151 121 105 140 137
 153 155 137 151 149 111 122 135 148 126 129 134 164 173 144 172
 167 165 123 170 121 155 157 147 174 159  67  25  18 112 166 203
 119 213 112 130 170 142 106 154 138 133 150 161 159 152 179 172
 177 165 171 164 171 159 137 158 151 164 158 178 152 123 134 176
 144 116 127 100 137 125 127 121 167 117   4  33 214 211 173 174
 163 183 153 174 193 175 134 164 125 139 156 117 112 113 185 154
 119 135 142 149 161  99 144 143 171 166 130 170 177 168 166 165
 155  97 150 141 157 170 165 177 116 127 147  22   7 174 166 224
 166 179 103 142 138 129 150 165 148 154 146 164 151 168 190 175
 174 160 170 160 162 173 148 165 158 165 130 146 156 175 162 147
 157 112 123 123 134 151 121 136 134  67  31   4 155 194 207 174
 165 164 168 180 149 153 147 157 158 154 138 129 123 140 159 100
 147 141 126 111 142 110 166 145 156 137 160 155 160 106 162 143
 140 160 121 168 175 177 158 183 121 144 139  10   7 178 152 153
 152 138 116 138  88  94 151 133 146 158 132 160 150 166 179 165
 172 161 169 168 160 172 149 159 128 157 137 152 134 145 146 159
 165 118 116  65 147 127 152  70 148  69   7  15   9 198 194 172
 167 173 145 137 168 167 129 161 144 141 114 167 135 166 138 122
 119 136 155 156 168 143 160 117 165 125 183 162 152 142 163 157
 167 123 184 177 169 173 158 120 145 115  20   6  26 146 187 211
 163 113 106 120 107 103 132  91 158 159 126 154 166 151 167 169
 172 156 152 166 145 142 127 141 146 160 132 162 144 148 140 158
 163 112  82 126 141  91 136 140 150  19   8  24  15 188 220 160
 165 110 108 119 145 150 132 129 133 134 126 153 118 136 113 140
 140 109 128 174 160 122 138 173 163 142 164 155 146 160 143 142
 160 161 146 128 139 162 150 134 135 152  83  19  21 169 181 184
 175 129 132 136 136 104 134 151 171 157 122 140 169 120 147 162
 192 165 150 179 150 136 133 157 131 178 150 151 121 149 144 140
 174 131 113 113 129 114 155 140 159  20  12  16   5 172 236 160
 132  91 107 114 140 118 113 145 174 159 165 120 126 127 127 144
 144 125 135 164 149 166 160 168 105 128 144 119 163 120 165 151
 121 144 139  98 138 161 157 129 133 112  24  25   9 159 185 194
 183 120 121  88 117 110 156 153 139 114 104 126 133 169 159 160
 159 166 154 144 155 135 156 137 158 167 114 144 146 123 135 142
  92 105  75 160 100  73  82 139  93  22   5  14  24 165 202 151
 101 110 151 115 144 132 132 128 107  96 128 169 158 154 120 133
 135  99 124 156 171 134 156 182  87 124 182 140 127 157 140 170
 113 142 159 170 170 134 120 124 104  74  68  42  15 170 174 172
 206 127 104 125  99 144 125 153 125 108 148 139 166 154 168 166
 150 169 163 173 148 161 134 142 137 114  90 150 144  92 111 152
 120 111  76 107 118 112 143 104  92  10   9  15   5 155 214 116
 130 120 158 123 139 159 137 160 147 147 152 157 150 138 150 151
 127 145 145 168 166 105 166 163 141 160 184 158 153 123 126 134
 121 176 173 154 126 117 152 169 171 136  79  33   6 164 180 197
 165 107 109  94 105  84 166 160 149 136 155 171 167 168 154 157
 185 177 150 139 113 156 127 162 163 163 133 129  91 149 132 117
  94 160  68 123  85 182  89 106  81  19  17  14   6 144 190  96
 126 140 134 144 145 150 148 157 148 133 177 141 157 165 133 126
  75 118 127 142 162 132 206 195 167 172 143 121 144 115 175 174
 148 134 137 150 183 156 171 148 159  34  21   4   6 127 105 152
 172 155 138 142 130 134 153  98 146 135 165 134 128 119 160 190
 173 170 166 180 182 165 161 131 145  97  81 146  89 121 107 124
 106 127 112 114 140 120  48  87  31  58  12  13  27 183 182 167
 150 166 170 168 165 132 130 131 135 125 149 135 136 166 125 163
 161 147 134 135 166 155 139 130 146 164 143 143 142 164 167 171
 154 131 156 171 179 147 149 146 136  19   9  18   7  40 163 121
 184 170 183 181 101 124  86 133 138 130 143 125 122 145 177 200
 185 175 152 172 129 127 154 132 101  70 119  82  36  66  83 112
 102 134  89  51  64  66 117  33  39  58  21  16   9 183 191 141
 157 139 182 144 147 158 123 155 151 159 123 157 167 162 144 152
 133 144  83 128 139 103 106  99 147 141 134 154 137 155 128 164
 153 134 144 155 150 176 102  50  32   6   4  32  29  58 200 127
 160 141 148 140 167 131 158 166 168 155 130 134 124 185 179 184
 191 149 165 177 141 143 170 133 114 114  60  84  49  23 128 128
 103 108  74  89 125  39  51  17  12  18   8  15  61 191 190 143
 144 161 162 162 157 163 142 142  82  91 127 139 158 141  69  79
 101 114  29  83  76  60  67  89  94 100 120 159 165 173 145 172
 144 146 150 141  67 113  29  11   6   7  26   5  21 152 149 170
 157 177 162 167 126 135  74  97 115  98 103  76 106 149 178 170
 182  90 156 141 160 162 202 146  93  40  24  43  28 126 112 155
 165  95  54  37  35  47  27   9  19  21   8  28 139 186 146 134
 129 146 156 162 138 163  84  81  39  90 131 110 106  61  60  94
 136 115  27  45  21  46  18  72 114 121 115 115 130 141 144 151
 124 159 131  74  51  37  16   8   4  29  16   8  24 105 117  97
 142 177 130  69  11  25  31  10  12  15   5  13  10  14   6  28
  23  25  19  15   7   7   7  10   6  13  16  10  13  16  14   5
   7   8  18  22  18  10   6  13   5  21  18 125 185 164 195  47
  12  76  98  77  86  61  67  59  86  74  66  89  55  42  48  51
  71  87  21  28  28 100 129 128  90 112 163 166 156 128 141 144
  82  73  55  62  35   5  10  16  26  13   4  42  93 162 176 176
 147 154 138 113  57  19  10  17  11  21  39  23   8   9  19   4
   4   5   7  17  12   5   5   8  12  11   4  17   4   6   5  18
  13   5  16  14  13  14   5  13  22   9  71 189 175 156 129  76
  36  45  74 123 148  65 125 115  82 120  64  69  22  29 145 164
 154 126  39  16  41  73  80  99  98 103 123 102  78  54  81  94
  13   6  20  18   5  10  27  12  13   6  22  98 157 190 178 173
 189 160 162 167 173 158 159 180 164 142 151 145 138 158 153  88
  26  18  12   7  10   8   8   6   6  13   4  27   5  25  11  26
   5  23   3  13   7   4  21  19  15 142 138 160 193 197 190 200
 182  37  25   6   7   9   8  28  23  32  16  29  13  20  21   6
  26   5  18  14  18  25  34  24  33  12  14  15  26  23  28  15
  54  32 128  63  69 173 119 140 168 172 175 184 189 194 190 185
 163 158 183 170 192 192 176 155 145 141 152 166 141 160 165 149
 167 132  76  11   6  12  20   5   5  18   8  32  54 133 154 161
 152 164 162 155 141 144 181 206 176 200 185 199 228 189 203 175
 197 193 167 112   9  19   4   5  16   4   5  14   6  14   6  13
   5  11   9   8 106 174 173 196 188 197 197 141  60  18  46  81
 183 205 186 183 188 175 175 171 155 173 181 158 142 142 159 165
 117 143 162 120 134 161 188 175 154 167 173 145 131 108 109 113
 126 128 147 148 175 170 171 153 184 185 175 170 177 182 146 101
  82  87 163 153 149 161 110 131 158 162 208 158 139 139 130 133
 156 181 147 127 132 209 153 143 140 160 137 201 221 213 215 191
 205 193 219 220 206 231 203 176 204 189 181 184 179 190 201 205
 193 168 203 173 187 200 141 202 166 177 200 194 182 152 147 142
 161 189 199 199 203 199 202 165 111 136 162 116 166 150 169 152
 195 168 173 159 163 127 147 165 197 160 137 142 165 164 155 144
 161 143  96  82  88 107 142 146 141 140  88  46   8  12  81 209
 186 170 174 116 144 134  18  57 109 168 186 201 186 188 185 189
 137 179 191 189 176 153 141 204 178 172 174 196 193 202 195 188
 195 172 203 173 172 194 162 197 176 164 173 172 184 167 153 140
 140 139 120 142 148 143 150 112  91 119 151 130 131 137 170 175
 177 144 144 120 140 115 139 147 154 134 127 161 170 167 148 151
 138 132  39  39  49  57 137 124  66  96  62  92  67 103 176 137
 161 166 118 116 145  67  37  80 150 172 211 205 208 228 156 156
 169 158 167 175 171 147 171 180 186 177 166 175 156 173 180 190
 191 160 176 186 170 175 195 209 195 178 168 145 156 149 126 132
 154 126 132 142 141 137 151 110 146 126 107 160 109 156 155 165
 162 136 121  79 125 135 150 114 135 150 145 180 157 165 127 124
 102  81 112  89 101 146 133 163 169 171 159 155 183 129 123 164
 158 136  95  89  97  79   9  59 160 198 193 207 187 161 146 161
 146 164 165 143 175 143 184 184 182 168 154 175 168 187 178 173
 170 183 196 181 166 172 181 176 179 148 144 149 164 141 113  95
 131 127 120 114 152 145 145 116  96 107 128 133 157 148 157 166
 132 131 124 114 119 158 118 116 115 148 118 164 175 158 153 153
 106 116 113 131 152 153 158 180 175 163 157 171 174 148 139 157
 145 148 103 144 112  40   4  20 173 212 207 193 133 143 166 145
 160 181 146 177 143 161 164 175 171 163 148 158 179 170 165 186
 196 187 187 181 177 189 169 173 162 163 169 170 164 142 109 131
 143 150  91 108 143 147 135 122 117 136 153 134 152 166 179 159
 133 146 135 110 135 134 153 135 121 112 128 156 155 102 125 125
 104  80 146 114 112 146 153 163 160 150 144 139 143 137 123 133
 160 125  97 132 104  38   8  10 183 193 177 158 165 159 154 157
 175 185 176 150 168 168 200 175 154 163 169 156 169 181 171 188
 173 207 145 176 180 177 188 165 183 175 181 149 156 140 136 154
 136 127  88 123 157 152  87  51  84 115 153 146 161 168 162 115
 102 136 122 142 172 136 157 115 129 136 142 147 162  94  95 152
 125  94 146 116 145 163 182 185 149 149 160 150 166 184 166 173
 169 128 137 140  99  20  13  14  86 180 206 147 171 163 156 174
 166 184 152 149 129 160 166 162 158 178 184 147 149 181 181 191
 153 188 157 156 153 191 167 178 183 175 161 155 164 152 158 147
 132 120 157 155 148 143 120 106  94 105 136 132 140 136 136 107
 124 157 119 148 134 114 118 102 141 161 149 154 145 134 119 184
  74 176 164 135 167 139 168 125 161 158 176 164 169 174 144 154
 157 138 161 124 102  14  12  18  47 172 196 145 167 170 165 155
 152 151 147 148 146 150 173 193 150 175 165 142 143 165 179 168
 154 209 127 171 168 156 179 171 143 184 165 177 158 156 142 154
 145 133 141 127 152 130 110  81 120 133 152 137 140 128 125 103
  83 128 125 116 102 134 139 144 141 130 153 156 106 155 175 151
 106 127  27  69 139 132 181 142 153 142 151 148 142 126 103 127
 146 141 132  74 108  20  10  10 101 183 171 160 138 132 155 156
 155 161 126 175 133 183 158 191 176 193 167 185 190 181 202 169
 183 161 136 167 172 173 148 185 182 170 160 159 165 143 152 156
 141 142 125 138 152 126 120 114 109 145 159 130 144 141 126  94
 121 141 159  85 104 142 121  87 121 132 160 133 130 156 181 122
 121  95 101 146 120 112 152 152 139 123 117 136 141 117 125 160
 154 160 123  67 116  11  10  15 134 190 176 162 114 127 153 151
 162 136 146 118 163 168 169 142 184 170 135 161 162 143 167 145
 175 164 136 169 170 152 166 175 157 168 171 143 176 150 162 142
 125 140 144 151 141 119  94 105 121 146 131  97 134 140 134 126
 144 132 141  89 120 152 133 119 117 177 161 132 174 156 151 132
 109  91 158 126 112 186 206 163 145 131 100 132 143 116 141 165
 165 159 118 102 135   6  18  17 150 165 170 134 136 172 148 131
 150 135 128 137 156 199 171 160 183 144 139 150 145 144 154 164
 173 171 187 163 145 156 161 167 171 153 158 163 162 147 123 138
 117 148 147 155 141 144 105 130 137 147 129 118 173 151 125 137
 112 122 150 180 162 150 121 162 135 191 152 167 166 150 144 141
  89  48 118 116 153 161 156 156 136 131  90 132 153 127 159 166
 161 123  82 122 159  15  30   4 151 139 188 136 145 146 111 173
 175 152 143 163 152 173 139 157 143 106 157 166 161 178 161 189
 129 126 156 135 144 145 154 166 166 160 150 144 151 149 143 152
 113 144 144 130 132 133 117 102 125 128 112 113 152 139 102 133
 140 165 144 140 121 147 115 178 100  83 138 148 154 157 121 152
  90 100  84 139 142 157 161 134 146 147 131 137 138 129 144 156
 145 134 107 144 134  16  21  16 100 175 184 169 137 119  78 161
 165 152 150 159 159 184 154 159 138 156 174 114 174 181 158 149
 178 157 161 155 153 168 162 173 174 157 148 150 143 124 125 131
 127 139 135 117 123  91  93 116 133 123 168 136 124 151 100 152
 136 160 150 136 138 160 132 154 138 162 176 162 155 159 138 114
  50  89 131 161 152 170 176 125 144 133 129 151 155 155 178 180
 163 138  85 159 133  19   6   9 162 160 164 126 134 137 135 147
 149 164 135 130 121  99 144 165 142 178 149 147 172 155 149 136
 178 158 149 154 147 168 147 161 144 130 158 170 150 121 114 124
  92 145 134 133 111 102  93 100 100 146 151 154 172 170 109 130
 161 177 154 140 135 177 146 138 155 192 158 137 132 141 162 112
  86 131 142 163 100 190 173 150 145 127 120 140 140 133 149 144
 133 176 147 156  99   8  24  20 158 166 189 155 105 135 155 138
 152 144 172 143 160 145 133 163 137 177 150 186 173 167 169 194
 156 153 146 176 163 164 153 152 169 159 171 172 151 126 101 101
 143 146 134  92 133 121 103  88 143 136 111 134 114 139 149 126
 139 154 131 146 138 194 168 157 128 163 148 165 168 153 162 120
 116 131 164 139 139 172 137 118 147 152 136 150 164 148 149 162
 199 160 120 132 147  26  27   5 121 146 199 149 125 138 167 114
 179 150 171 123 153 182 147 182 178 172 171 181 156 173 142 181
 180 175 182 165 155 152 175 169 168 155 164 143 102 136 159 132
 157 132 141 112 138 130 112  88 124 125 132 113 107 120  85 144
 164 166 160 158 157 147 133 116 126 142 154 168 169 155 138 116
  99 128 130 175 172 218 127 173 132 173 146 145 177 154 142 177
 173 160 163 157 130   7   7  24  51 145 166 153 109 156 157 148
 135 179 165 161 156 166 169 165 173 144 156 162 171 194 169 169
 133 148 178 159 164 161 174 161 167 150 151 170 146 130 143 143
 154 120 111 135 138 145 111  97 112  99 112 132  93 104 146 156
 160 153 176 145 190 129 164 160 135 143 159 139 130 140 122 116
 167 153 169 153 193 158 119 175 133 195 169 153 184 164 153 192
 154 158 153 156 119  89  19  11  11 154 172 164 130 155 145 170
 144 177 165 161 138 171 189 189 162 163 169 179 174 151 174 138
 147 154 151 164 172 165 146 139 147 174 158 134 134 117 137 114
 121 133 129 132 144 137 118  89 122  84 109 148 169 135 169 128
 156 169 185 154 193 122 153 162 124 148 177 160 149 155 139 135
 142 135 150 171 172 162 128 163 111 167 159 146 160 161 168 181
 181 136 129 154 131 130  12  21  41 148 189 143 189 143 145 130
 143 139 168 177 162 177 166 145 127 131 152 172 154 132 170 146
 151 158 132 150 166 174 148 131 170 154 118 118 119 123 125 129
 109 144 148 126 124 142 104 122 141 110 134 135 140 144 166 124
  92 152 160 177 184 138 123 138 132 149 162 159 149 148 162 176
 203 165 192 178 180 153 151 126 161 197 197 177 160 166 182 162
 180 161 176 119  96 125  17   7  28 184 161 204 114 147  99 149
 183 177 150 175 160 117 185 135 190 133 156 163 145 154 140 128
 147 169 158 151 168 153 124 145 144 134 106 120 124  97 107 106
  96 121 123 118 131 129 136 129 142 132 123 124 141 115 125 138
 130 129 149 151 165 138 175 143 144 168 173 172 174 176 160 150
 169 143 143 174 193 153 168 157 159 165 148 160 161 178 151 139
 145 162 151 176 137  41  10  26  11 186 152 176 144 156 162 171
 170 155 159 156 133 146 170 167 148 146 120 127 149 147 146 135
 177 171 149 176 175 166 169 168 132 126  97 154 128 103  77 107
  97  93 128  97 122 142 122 143 100 106 114 165 154 147 112 157
 147 129 117 160 130 127 132 148 162 176 161 146 131 150 156 168
 149 151 168 183 176 132 151 147 172 171 174 191 164 178 183 189
 186 168 148 155 158  47  17   4  19 165 142 181 187 136 142 150
 127 143 174 165 171 156 166 160 153 148 192 155 134 108 179 151
 168 151 165 194 180 178 155 120 137 142 107 116 121  96 113  67
 113 119 116 126 139 138 129 133 111 129 137 136 116 133  90 118
 119 109 134 101  98  97 143 166 158 152 173 123 157 135 170 159
 108 135 167 173 155 129 144 138 179 153 157 178 159 173 188 185
 162 145 166 163 166  11  20  40  10 192 182 174 212 153 177 142
 159 172 192 152 172 152 178 179 147 154 140 136 155 175 189 162
 163 170 183 146 198 210 174 187 147 124 143 118 124 126 124 130
 142 126 115  98 101  98 105 114  86 115 139 117 127 122 101  88
 137  90  95 167 166 165 118 153 136 151 140 161 140 170 147 134
 105 133 164 167 162 163 171 153 190 162 152 166 171 180 177 163
 159 153 158 131 155  35  24   4  17 183 174 183 218 124 168 168
 175 177 192 157 162 150 168 150 165 186 147 152 153 168 153 148
 172 121 195 194 161 126 169  82  97 129 121 143 142 120 110 120
 132 133 108 128 133 119 119 115 129 138 122 105 110  80 110 117
 110 134 153 164 135 159 120 134 135 144 133 147 113 147 135 126
 124 142 163 161 156 177 176 159 174 173 165 162 179 171 154 147
 168 146 141 152 155  30  20  31  21 180 168 183 207 136 174 180
 182 168 177 170 153 164 172 138 154 139 168 170 154 136 181 158
 158 171 164 182 194  77 142 102 132 146 159 139 155 123 116 109
 113 128 115 101 107 113 121  99  90 128  93 119 116 119 140 133
 145 108 108  98 131 114 126 152 140 130 169 122 132 110 160 141
 140 151 167 164 149 174 169 165 160 148 149 156 179 159 136 118
 153  91  53 102 127  23   6  19   8 172 174 178 204 199 218 185
 185 168 167 168 145 155 157 135 156 145 141 163 148 135 141 131
 162 186 172 177 150  45  72  38  36  66  89 102  94 105 103 144
 109 119 108 110 117 119 113  83 114 140  98  99 103 133 137 116
  88 144 125 115 103 144 151 158 143 149 158 158 121 138 147 133
 172 165 176 179 162 183 162 165 160 109 134 167 167 138 137 107
 129 135 111  97  95  30  25  15  16 126 158 183 210 192 206 194
 162 172 172 153 151 116 104 110 107 146 114 156 142 162 141 170
 175 158 150  87  24  31  41  42 104  66 130 106  71  34  55  40
  40  89  93 120 124 120 130 132 119 106 116 125 168 151 132 115
 125 144 124  90 137 133 161 132 166 152 151 145 119 130 127  93
 188 161 160 171 156 172 133 127 135  68 133 180 129  85 123 110
 151  86  57 100 141  32  12  20  19 142 197 169 183 187 206 169
 195 210 182 118 143  88  98 158 163 146 142 159 159 175 184 141
 180 147  99  64  19  38  44  35  71  76 128 129 103  60  34  35
  55  65  98 140 109 116 101  99 103 132 102 150 147 158 124 107
 115 133 139 108 137 155 125 171  88 147 133 138 125 149 129 161
 180 143 148 144 128 105 106  39  33  60 180 148 130 112  74 129
 143 164 124 130 140  36  17  15  12  80 175 147 158 178 154 130
 136 125 100 133  91 104 130 155 163 145 145 178 160 168 161 160
  27  29  33  49  41  68  68  53  76  90 136 145 133 102  95  84
  40  70  35  50 132  88  98 120 135 156 102 162 169 173 113 117
 108 111 128 126 116 127  86 106 139 124  67  61  53 117 145 179
 169 148 189 128 131  84 126 158 158 180 139 157 160 110 164 129
 153 149 146 152 117  16  16  24  11 123 185 145 138 148 155 163
 131 139 130 119 174 152 144 146 163 172 166 167 159 179 128  50
   5   6   6  18   9  33  31  23  22  94 173 164 123 109 145 154
  39  20  39  27  48  57  95 120  97  43  46  35  66  34  95 101
 143 109 116  92  64  60  42  42  44  34  20  43  33  92 123 140
 158 153 143 108 151 190 137 147 186 172 129 135 129 108 157 130
 172 131 141 133  76  19  19   7  15 199 174 113 117  63  13  37
  43  78  98 114 101 149 142 139 133 118 119 132  82  33   7   8
  25  23   8   9   4  16  15  17  27  26  26  18  24  35  37  24
  42  21  28  16   7  43  13  42  20  35  23  27  41  10   8  50
  34  13  41  12  24  13  18   8   9  18  10  12   7  29  39  46
  54  98  98 105 118 180 124 142 140  97 132 109  88 113 112 129
 158 132 136  77  11  10  23  19  18 192 188 189 173 134 117  95
  77   8  25  19  30  12  35  37  28  23  14  10  11  24  24  14
   6  19  17  30  24  31  15  15   5  15  19  20  13  12  14  24
   7  25  13  35  18  22  27  28  30  10  16  40   7  24  26  15
  16  23  22   6  15  30  27  29  15  39  15   8  38  83  87  98
  35   9   5   8  21  11  17  27  38   9  16  21   7  19  28  21
  21  17  32  11   8  30   9   8  12 186 166 172 184 154 156 179
 184 207 161  20   9  13  29  16  12   9  13  17  15   5  14  38
  20  28  11  16  11  22  12  25  19  28  23  33  29  23   6  13
  30   6  21   6  22  23  31  37  10  23  27   7  15  25  22  36
  28  52  18  30  26  80  75 104  99 140 125 107 131 141 126 136
 127  73  19  27  12  18  23   6  18  13  13  31  11  14  17  10
  17  11  13  25  35  36   7  41 130 171 172 182 146 138 165 142
 154 164 140 182 180 161  90  39  19  27  21   4  22  28  20   4
 138 171 179 190 162 111  35   8  83 128 149 176 165 131  56  24
 111  68  65  36 154 188 114 170 187 174 147 147  65 142 153 180
 158 165 164 193 168 175 168 168 173 189 184 168 162 152 151 168
 152 178 158 116  11  20  10  26   8  16  39  44  19  26   8  30
  15  18  17  24   5  11  55 148 161 161 166 175 207 202 191 205
 185 180 185 196 196 158 172  86 159 143 146 140 127  61  69 119
 207 210 182 178 176 187 185 212 164 189 168 162 167 198 186 188
 194 167 185 216 179 183 169 165 182 172 194 188 180 195 178 170
 165 127 172 188 188 152 196 178 213 181 178 190 189 181 188 187
 195 183 216 185 199 202 182 194 192 214 190 207 190 187 194 209
 207 191 172 193 175 178 176 189 193 157 190 187 206 193 182 214
 175 219 151 191 202 211 209 173 196 202 201 181 210 199 197 195
