P2
200 60
255
 255 255 255 255 255 255 255 255 255 255 255 255 255 255 255 255
 255 255 255 255 255 255 255 255 255 255 255 255 255 255 255 255
 255 255 255 255 255 255 255 255 255 255 255 255 255 255 255 255
 255 255 255 255 255 255 255 255 255 255 255 255 255 255 255 255
 255 255 255 255 255 255 255 255 255 255 255 255 255 255 255 255
 255 255 255 255 255 255 255 255 255 255 255 255 255 255 255 255
 255 255 255 255 255 255 255 255 255 255 255 255 255 255 255 255
 255 255 255 255 255 255 255 255 255 255 255 255 255 255 255 255
 255 255 255 255 255 255 255 255 255 255 255 255 255 255 255 255
 255 255 255 255 255 255 255 255 255 255 255 255 255 255 255 255
 255 255 255 255 255 255 255 255 255 255 255 255 255 255 255 255
 255 255 255 255 255 255 255 255 255 255 255 255 255 255 255 255
 255 255 255 255 255 255 255 255 255 255 255 255 255 255 255 255
 255 255 255 255 255 255 255 255 255 255 255 255 255 255 255 255
 255 255 255 255 255 255 255 255 255 255 255 255 255 255 255 255
 255 255 255 255 255 255 255 255 255 255 255 255 255 255 255 255
 255 255 255 255 255 255 255 255 255 255 255 255 255 255 255 255
 255 255 255 255 255 255 255 255 255 255 255 255 255 255 255 255
 255 255 255 255 255 255 255 255 255 255 255 255 255 255 255 255
 255 255 255 255 255 255 255 255 255 255 255 255 255 255 255 255
 255 255 255 255 255 255 255 255 255 255 255 255 255 255 255 255
 255 255 255 255 255 255 255 255 255 255 255 255 255 255 255 255
 255 255 255 255 255 255 255 255 255 255 255 255 255 255 255 255
 255 255 255 255 255 255 255 255 255 255 255 255 255 255 255 255
 255 255 255 255 255 255 255 255 255 255 255 255 255 255 255 255
 255 255 255 255 255 255 255 255 255 255 255 255 255 255 255 255
 255 255 255 255 255 255 255 255 255 255 255 255 255 255 255 255
 255 255 255 255 255 255 255 255 255 255 255 255 255 255 255 255
 255 255 255 255 255 255 255 255 255 255 255 255 255 255 255 255
 255 255 255 255 255 255 255 255 255 255 255 255 255 255 255 255
 255 255 255 255 255 255 255 255 255 255 255 255 255 255 255 255
 255 255 255 255 255 255 255 255 255 255 255 255 255 255 255 255
 255 255 255 255 255 255 255 255 255 255 255 255 255 255 255 255
 255 255 255 255 255 255 255 255 255 255 255 255 255 255 255 255
 255 255 255 255 255 255 255 255 255 255 255 255 255 255 255 255
 255 255 255 255 255 255 255 255 255 255 255 255 255 255 255 255
 255 255 255 255 255 255 255 255 255 255 255 255 255 255 255 255
 255 255 255 255 255 255 255 255 255 255 255 255 255 255 255 255
 255 255 255 255 255 255 255 255 255 255 255 255 255 255 255 255
 255 255 255 255 255 255 255 255 255 255 255 255 255 255 255 255
 255 255 255 255 255 255 255 255 255 255 255 255 255 255 255 255
 255 255 255 255 255 255 255 255 255 255 255 255 255 255 255 255
 255 255 255 255 255 255 255 255 255 255 255 255 255 255 255 255
 255 255 255 255 255 255 255 255 255 255 255 255 255 255 255 255
 255 255 255 255 255 255 255 255 255 255 255 255 255 255 255 255
 255 255 255 255 255 255 255 255 255 255 255 255 255 255 255 255
 255 255 255 255 255 255 255 255 255 255 255 255 255 255 255 255
 255 255 255 255 255 255 255 255 255 255 255 255 255 255 255 255
 255 255 255 255 255 255 255 255 255 255 255 255 255 255 255 255
 255 255 255 255 255 255 255 255 255 255 255 255 255 255 255 255
 255 255 255 255 255 255 255 255 255 255 255 255 255 255 255 255
 255 255 255 255 255 255 255 255 255 255 255 255 255 255 255 255
 255 255 255 255 255 255 255 255 255 255 255 255 255 255 255 255
 255 255 255 255 255 255 255 255 255 255 255 255 255 255 255 255
 255 255 255 255 255 255 255 255 255 255 255 255 255 255 255 255
 255 255 255 255 255 255 255 255 255 255 255 255 255 255 255 255
 255 255 255 255 255 255 255 255 255 255 255 255 255 255 255 255
 255 255 255 255 255 255 255 255 255 255 255 255 255 255 255 255
 255 255 255 255 255 255 255 255 255 255 255 255 255 255 255 255
 255 255 255 255 255 255 255 255 255 255 255 255 255 255 255 255
 255 255 255 255 255 255 255 255 255 255 255 255 255 255 255 255
 255 255 255 255 255 255 255 255 255 255 255 255 255 255 255 255
 255 255 255 255 255 255 255 255 255 255 255 255 255 255 255 255
 255 255 255 255 255 255 255 255 255 255 255 255 255 255 255 255
 255 255 255 255 255 255 255 255 255 255 255 255 255 255 255 255
 255 255 255 255 255 255 255 255 255 255 255 255 255 255 255 255
 255 255 255 255 255 255 255 255 255 255 255 255 255 255 255 255
 255 255 255 255 255 255 255 255 255 255 255 255 255 255 255 255
 255 255 255 255 255 255 255 255 255 255 255 255 255 255 255 255
 255 255 255 255 255 255 255 255 255 255 255 255 255 255 255 255
 255 255 255 255 255 255 255 255 255 255 255 255 255 255 255 255
 255 255 255 255 255 255 255 255 255 255 255 255 255 255 255 255
 255 255 255 255 255 255 255 255 255 255 255 255 255 255 255 255
 255 255 255 255 255 255 255 255 255 255 255 255 255 255 255 255
 255 255 255 255 255 255 255 255 255 255 255 255 255 255 255 255
 255 255 255 255 255 255 255 255 255 255 255 255 255 255 255 255
 255 255 255 255 255 255 255 255 255 255 255 255 255 255 255 255
 255 255 255 255 255 255 255 255 255 255 255 255 255 255 255 255
 255 255 255 255 255 255 255 255 255 255 255 255 255 255 255 255
 255 255 255 255 255 255 255 255 255 255 255 255 255 255 255 255
 255 255 255 255 255 255 255 255 255 255 255 255 255 255 255 255
 255 255 255 255 255 255 255 255 255 255 255 255 255 255 255 255
 255 255 255 255 255 255 255 255 255 255 255 255 255 255 255 255
 255 255 255 255 255 255 255 255 255 255 255 255 255 255 255 255
 255 255 255 255 255 255 255 255 255 255 255 255 255 255 255 255
 255 255 255 255 255 255 255 255 255 255 255 255 255 255 255 255
 255 255 255 255 255 255 255 255 255 255 255 255 255 255 255 255
 255 255 255 255 255 255 255 255 255 255 255 255 255 255 255 255
 255 255 255 255 255 255 255 255 255 255 255 255 255 255 255 255
 255 255 255 255 255 255 255 255 255 255 255 255 255 255 255 255
 255 255 255 255 255 255 255 255 255 255 255 255 255 255 255 255
 255 255 255 255 255 255 255 255 255 255 255 255 255 255 255 255
 255 255 255 255 255 255 255 255 255 255 255 255 255 255 255 255
 255 255 255 255 255 255 255 255 255 255 255 255 255 255 255 255
 255 255 255 255 255 255 255 255 255 255 255 255 255 255 255 255
 255 255 255 255 255 255 255 255 255 255 255 255 255 255 255 255
 255 255 255 255 255 255 255 255 255 255 255 255 255 255 255 255
 255 255 255 255 255 255 255 255 255 255 255 255 255 255 255 255
 255 255 255 255 255 255 255 255 255 255 255 255 255 255 255 255
 255 255 255 255 255 255 255 255 255 255 255 255 255 255 255 255
 255 255 255 255 255 255 255 255 255 255 255 255 255 255 255 255
 255 255 255 255 255 255 255 255 255 255 255 255 255 255 255 255
 255 255 255 255 255 255 255 255 255 255 255 255 255 255 255 255
 255 255 255 255 255 255 255 255 255 255 255 255 255 255 255 255
 255 255 255 255 255 255 255 255 255 255 255 255 255 255 255 255
 255 255 255 255 255 255 255 255 255 255 255 255 255 255 255 255
 255 255 255 255 255 255 255 255 255 255 255 255 255 255 255 255
 255 255 255 255 255 255 255 255 255 255 255 255 255 255 255 255
 255 255 255 255 255 255 255 255 255 255 255 255 255 255 255 255
 255 255 255 255 255 255 255 255 255 255 255 255 255 255 255 255
 255 255 255 255 255 255 255 255 255 255 255 255 255 255 255 255
 255 255 255 255 255 255 255 255 255 255 255 255 255 255 255 255
 255 255 255 255 255 255 255 255 255 255 255 255 255 255 255 255
 255 255 255 255 255 255 255 255 255 255 255 255 255 255 255 255
 255 255 255 255 255 255 255 255 255 255 255 255 255 255 255 255
 255 255 255 255 255 255 255 255 255 255 255 255 255 255 255 255
 255 255 255 255 255 255 255 255 255 255 255 255 255 255 255 255
 255 255 255 255 255 255 255 255 255 255 255 255 255 255 255 255
 255 255 255 255 255 255 255 255 255 255 255 255 255 255 255 255
 255 255 255 255 255 255 255 255 255 255 255 255 255 255 255 255
 255 255 255 255 255 255 255 255 255 255 255 255 255 255 255 255
 255 255 255 255 255 255 255 255 255 255 255 255 255 255 255 255
 255 255 255 255 255 255 255 255 255 255 255 255 255 255 255 255
 255 255 255 255 255 255 255 255 255 255 255 255 255 255 255 255
 255 255 255 255 255 255 255 255 255 255 255 255 255 255 255 255
 255 255 255 255 255 255 255 255 255 255 255 255 255 255 255 255
 255 255 255 255 255 255 255 255 255 255 255 255 255 255 255 255
 255 255 255 255 255 255 255 255 255 255 255 255 255 255 255 255
 255 255 255 255 255 255 255 255 255 255 255 255 255 255 255 255
 255 255 255 255 255 255 255 255 255 255 255 255 255 255 255 255
 255 255 255 255 255 255 255 255 255 255 255 255 255 255 255 255
 255 255 255 255 255 255 255 255 255 255 255 255 255 255 255 255
 255 255 255 255 255 255 255 255 255 255 255 255 255 255 255 255
 255 255 255 255 255 255 255 255 255 255 255 255 255 255 255 255
 255 255 255 255 255 255 255 255 255 255 255 255 255 255 255 255
 255 255 255 255 255 255 255 255 255 255 255 255 255 255 255 255
 255 255 255 255 255 255 255 255 255 255 255 255 255 255 255 255
 255 255 255 255 255 255 255 255 255 255 255 255 255 255 255 255
 255 255 255 255 255 255 255 255 255 255 255 255 255 255 255 255
 255 255 255 255 255 255 255 255 255 255 255 255 255 255 255 255
 255 255 255 255 255 255 255 255 255 255 255 255 255 255 255 255
 255 255 255 255 255 255 255 255 255 255 255 255 255 255 255 255
 255 255 255 255 255 255 255 255 255 255 255 255 255 255 255 255
 255 255 255 255 255 255 255 255 255 255 255 255 255 255 255 255
 255 255 255 255 255 255 255 255 255 255 255 255 255 255 255 255
 255 255 255 255 255 255 255 255 255 255 255 255 255 255 255 255
 255 255 255 255 255 255 255 255 255 255 255 255 255 255 255 255
 255 255 255 255 255 255 255 255 255 255 255 255 255 255 255 255
 255 255 255 255 255 255 255 255 255 255 255 255 255 255 255 255
 255 255 255 255 255 255 255 255 255 255 255 255 255 255 255 255
 255 255 255 255 255 255 255 255 255 255 255 255 255 255 255 255
 255 255 255 255 255 255 255 255 255 255 255 255 255 255 255 255
 255 255 255 255 255 255 255 255 255 255 255 255 255 255 255 255
 255 255 255 255 255 255 255 255 255 255 255 255 255 255 255 255
 255 255 255 255 255 255 255 255 255 255 255 255 255 255 255 255
 255 255 255 255 255 255 255 255 255 255 255 255 255 255 255 255
 255 255 255 255 255 255 255 255 255 255 255 255 255 255 255 255
 255 255 255 255 255 255 255 255 255 255 255 255 255 255 255 255
 255 255 255 255 255 255 255 255 255 255 255 255 255 255 255 255
 255 255 255 255 255 255 255 255 255 255 255 255 255 255 255 255
 255 255 255 255 255 255 255 255 255 255 255 255 255 255 255 255
 255 255 255 255 255 255 255 255 255 255 255 255 255 255 255 255
 255 255 255 255 255 255 255 255 255 255 255 255 255 255 255 255
 255 255 255 255 255 255 255 255 255 255 255 255 255 255 255 255
 255 255 255 255 255 255 255 255 255 255 255 255 255 255 255 255
 255 255 255 255 255 255 255 255 255 255 255 255 255 255 255 255
 255 255 255 255 255 255 255 255 255 255 255 255 255 255 255 255
 255 255 255 255 255 255 255 255 255 255 255 255 255 255 255 255
 255 255 255 255 255 255 255 255 255 255 255 255 255 255 255 255
 255 255 255 255 255 255 255 255 255 255 255 255 255 255 255 255
 255 255 255 255 255 255 255 255 255 255 255 255 255 255 255 255
 255 255 255 255 255 255 255 255 255 255 255 255 255 255 255 255
 255 255 255 255 255 255 255 255 255 255 255 255 255 255 255 255
 255 255 255 255 255 255 255 255 255 255 255 255 255 255 255 255
 255 255 255 255 255 255 255 255 255 255 255 255 255 255 255 255
 255 255 255 255 255 199   0   0   0   0   0   0   0   0   0   0
 114 255 255 255 255 255 255 255 255 255 255 255 255 255 255 255
 255 255 255 255 227   0   0   0   0   0   0   0   0   0   0   0
 255 255 255 255 255 255 255 255 255 255 255 255 255 255 255 255
 255 255 255 255 255 255 255 255 255 255 255 255 255 255 255 255
 255 255 255 255 255 255 255 255 255 255 255 255 255 255 255 255
 255 255 255 255 255 170   0   0   0   0   0   0   0   0   0   0
   0   0   0   0   0   0   0   0   0  29  85 142 227 255 255 255
 255 255 255 255 255 255 255 255 255 255 255 255 255 255 255 255
 255 255 255 255 255 255 255 255 255 255 255 255 255 255 255 255
 255 255 255 255 255 255 255 255 255 255 255 255 255 255 255 255
 255 255 255 255 255 255 255 255 255 255 255 255 255 255 255 255
 255 255 255 255 255 255 255 255 255 255 255 255 255 199  85  85
  29   0   0   0   0   0   0   0  57 255 255 255 255 255 255 255
 255 255 255 255 255 255 255 255 255 255 255 255 114   0   0   0
   0   0   0   0   0  57  85  85 255 255 255 255 255 255 255 255
 255 255 255 255 255 255 255 255 255 255 255 255 255 255 255 255
 255 255 255 255 255 255 255 255 255 255 255 255 255 255 255 255
 255 255 255 255 255 255 255 255 255 255 255 255 255 170  85  85
  85   0   0   0   0   0   0   0   0   0  29  85  85  57   0   0
   0   0   0   0   0 114 227 255 255 255 255 255 255 255 255 255
 255 255 255 255 255 255 255 255 255 255 255 255 255 255 255 255
 255 255 255 255 255 255 255 255 255 255 255 255 255 255 255 255
 255 255 255 255 255 255 255 255 255 255 255 255 255 255 255 255
 255 255 255 255 255 255 255 255 255 255 255 255 255 255 255 255
 255 255 255 255 255 255 255 255 255 227  29   0   0   0   0   0
   0 255 255 255 255 255 255 255 255 255 255 255 255 255 255 255
 255 255 255 227   0   0   0   0   0   0   0   0 170 255 255 255
 255 255 255 255 255 255 255 255 255 255 255 255 255 255 255 255
 255 255 255 255 255 255 255 255 255 255 255 255 255 255 255 255
 255 255 255 255 255 255 255 255 255 255 255 255 255 255 255 255
 255 255 255 255 255 255 255 255 255 255  57   0   0   0   0   0
  57 199 255 255 255 255 255 142  29   0   0   0   0   0  29 227
 255 255 255 255 255 255 255 255 255 255 255 255 255 255 255 255
 255 255 255 255 255 255 255 255 255 255 255 255 255 255 255 255
 255 255 255 255 255 255 255 255 255 255 255 255 255 255 255 255
 255 255 255 255 255 255 255 255 255 255 255 255 255 255 255 255
 255 255 255 255 255 255 255 255 255 255 255 255 255 255 255 255
 255 255  85   0   0   0   0   0   0 170 255 255 255 255 255 255
 255 255 255 255 255 255 255 255 255 255 255  57   0   0   0   0
   0   0   0  85 255 255 255 255 255 255 255 255 255 255 255 255
 255 255 255 255 255 255 255 255 255 255 255 255 255 255 255 255
 255 255 255 255 255 255 255 255 255 255 255 255 255 255 255 255
 255 255 255 255 255 255 255 255 255 255 255 255 255 255 255 255
 255 255  85   0   0   0   0   0  85 255 255 255 255 255 255 255
 227  29   0   0   0   0   0  29 255 255 255 255 255 255 255 255
 255 255 255 255 255 255 255 255 255 255 255 255 255 255 255 255
 255 255 255 255 255 255 255 255 255 255 255 255 255 255 255 255
 255 255 255 255 255 255 255 255 255 255 255 255 255 255 255 255
 255 255 255 255 255 255 255 255 255 255 255 255 255 255 255 255
 255 255 255 255 255 255 255 255 255 255  85   0   0   0   0   0
   0 114 255 255 255 255 255 255 255 255 255 255 255 255 255 255
 255 255 199   0   0   0   0   0   0   0   0 142 255 255 255 255
 255 255 255 255 255 255 255 255 255 255 255 255 255 255 255 255
 255 255 255 255 255 255 255 255 255 255 255 255 255 255 255 255
 255 255 255 255 255 255 255 255 255 255 255 255 255 255 255 255
 255 255 255 255 255 255 255 255 255 255  57   0   0   0   0   0
 170 255 255 255 255 255 255 255 255 199   0   0   0   0   0   0
 142 255 255 255 255 255 255 255 255 255 255 255 255 255 255 255
 255 255 255 255 255 255 255 255 255 255 255 255 255 255 255 255
 255 255 255 255 255 255 255 255 255 255 255 255 255 255 255 255
 255 255 255 255 255 255 255 255 255 255 255 255 255 255 255 255
 255 255 255 255 255 255 255 255 255 255 255 255 255 255 255 255
 255 255   0   0   0   0   0   0   0  57 255 255 255 255 255 255
 255 255 255 255 255 255 255 255 255 255  29   0  57  29   0   0
   0   0   0 170 255 255 255 255 255 255 255 255 255 255 255 255
 255 255 255 255 255 255 255 255 255 255 255 255 255 255 255 255
 255 255 255 255 255 255 255 255 255 255 255 255 255 255 255 255
 255 255 255 255 255 255 255 255 255 255 255 255 255 255 255 255
 255 255   0   0   0   0   0   0 199 255 255 255 255 255 255 255
 255 255  57   0   0   0   0   0  85 255 255 255 255 255 255 255
 255 255 255 255 255 255 255 255 255 255 255 255 255 255 255 255
 255 255 255 255 255 255 255 255 255 255 255 255 255 255 255 255
 255 255 255 255 255 255 255 255 255 255 255 255 255 255 255 255
 255 255 255 255 255 255 255 255 255 255 255 255 255 255 255 255
 255 255 255 255 255 255 255 255 255 199   0   0   0   0   0   0
   0   0 255 255 255 255 255 255 255 255 255 255 255 255 255 255
 255 142   0   0 199   0   0   0   0   0   0 255 255 255 255 255
 255 255 255 255 255 255 255 255 255 255 255 255 255 255 255 255
 255 255 255 255 255 255 255 255 255 255 255 255 255 255 255 255
 255 255 255 255 255 255 255 255 255 255 255 255 255 255 255 255
 255 255 255 255 255 255 255 255 255 227   0   0   0   0   0   0
 255 255 255 255 255 255 255 255 255 255 142   0   0   0   0   0
   0 255 255 255 255 255 255 255 255 255 255 255 255 255 255 255
 255 255 255 255 255 255 255 255 255 255 255 255 255 255 255 255
 255 255 255 255 255 255 255 255 255 255 255 255 255 255 255 255
 255 255 255 255 255 255 255 255 255 255 255 255 255 255 255 255
 255 255 255 255 255 255 255 255 255 255 255 255 255 255 255 255
 255 142   0  85  57   0   0   0   0   0 170 255 255 255 255 255
 255 255 255 255 255 255 255 255 227  29   0 114 199   0   0   0
   0   0   0 255 255 255 255 255 255 255 255 255 255 255 255 255
 255 255 255 255 255 255 255 255 255 255 255 255 255 255 255 255
 255 255 255 255 255 255 255 255 255 255 255 255 255 255 255 255
 255 255 255 255 255 255 255 255 255 255 255 255 255 255 255 255
 255 170   0   0   0   0   0  29 255 255 255 255 255 255 255 255
 255 255 170   0   0   0   0   0   0 255 255 255 255 255 255 255
 255 255 255 255 255 255 255 255 255 255 255 255 255 255 255 255
 255 255 255 255 255 255 255 255 255 255 255 255 255 255 255 255
 255 255 255 255 255 255 255 255 255 255 255 255 255 255 255 255
 255 255 255 255 255 255 255 255 255 255 255 255 255 255 255 255
 255 255 255 255 255 255 255 255 255  85   0 142 114   0   0   0
   0   0 114 255 255 255 255 255 255 255 255 255 255 255 255 255
 114   0  29 255 170   0   0   0   0   0  85 255 255 255 255 255
 255 255 255 255 255 255 255 255 255 255 255 255 255 255 255 255
 255 255 255 255 255 255 255 255 255 255 255 255 255 255 255 255
 255 255 255 255 255 255 255 255 255 255 255 255 255 255 255 255
 255 255 255 255 255 255 255 255 255 114   0   0   0   0   0  85
 255 255 255 255 255 255 255 255 255 255 170   0   0   0   0   0
   0 255 255 255 255 255 255 255 255 255 255 255 255 255 255 255
 255 255 255 255 255 255 255 255 255 255 255 255 255 255 255 255
 255 255 255 255 255 255 255 255 255 255 255 255 255 255 255 255
 255 255 255 255 255 255 255 255 255 255 255 255 255 255 255 255
 255 255 255 255 255 255 255 255 255 255 255 255 255 255 255 255
 255   0   0 199 170   0   0   0   0   0  57 255 255 255 255 255
 255 255 255 255 255 255 255 199   0   0 170 255 114   0   0   0
   0   0  85 255 255 255 255 255 255 255 255 255 255 255 255 255
 255 255 255 255 255 255 255 255 255 255 255 255 255 255 255 255
 255 255 255 255 255 255 255 255 255 255 255 255 255 255 255 255
 255 255 255 255 255 255 255 255 255 255 255 255 255 255 255 255
 255  85   0   0   0   0   0 114 255 255 255 255 255 255 255 255
 255 255 170   0   0   0   0   0  29 255 255 255 255 255 255 255
 255 255 255 255 255 255 255 255 255 255 255 255 255 255 255 255
 255 255 255 255 255 255 255 255 255 255 255 255 255 255 255 255
 255 255 255 255 255 255 255 255 255 255 255 255 255 255 255 255
 255 255 255 255 255 255 255 255 255 255 255 255 255 255 255 255
 255 255 255 255 255 255 255 255 199   0   0 255 255   0   0   0
   0   0   0 255 255 255 255 255 255 255 255 255 255 255 255  57
   0  57 255 255  85   0   0   0   0   0 170 255 255 255 255 255
 255 255 255 255 255 255 255 255 255 255 255 255 255 255 255 255
 255 255 255 255 255 255 255 142  85  85  85  85 114 199 255 255
 170  57 255 255 255 255 255 255 255 255 255 255 255 255 255 255
 255 255 255 255 255 255 255 255 255  29   0   0   0   0   0 170
 255 255 255 255 255 255 255 255 255 255 114   0   0   0   0   0
  85 255 255 255 255 255 255 255 255 255 255 255 255 255 255 255
 255 255 255 255 199 114  85 170 255 255 255 255 227 114  85  85
 199 255 255 255 255 255 255 255 255 255 255 255 255 255 255 255
 255 255 255 255 255 255 255 255 199  85  85  85  85  85 170 255
 255 227  57 199 255 255 255 255 255 255 255 255 255 255 255 255
 114   0  85 255 255  57   0   0   0   0   0 170 255 255 255 255
 255 255 255 255 255 255 142   0   0 227 255 255  29   0   0   0
   0   0 170 255 255 255 255 255 255 255 255 255 255 255 255 255
 255 255 255 255 255 255 255 255 255 255 255 255 255 170  29   0
   0   0   0   0   0   0  29  57   0  57 255 255 255 255 255 255
 255 255 255 255 255 255 255 255 255 255 255 255 255 255 255 255
 255   0   0   0   0   0   0 227 255 255 255 255 255 255 255 255
 255 255  57   0   0   0   0   0 170 255 255 255 255 255 255 255
 255 255 255 255 255 255 255 255 255 255 227  85   0   0   0  29
 255 255 255 227  29   0   0   0 227 255 255 255 255 255 255 255
 255 255 255 255 255 255 255 255 255 255 255 255 255 255 227  57
   0   0   0   0   0   0   0   0  85   0   0 227 255 255 255 255
 255 255 255 255 255 255 255 255  57   0 142 255 255 114   0   0
   0   0   0 114 255 255 255 255 255 255 255 255 255 227  29   0
 114 255 255 255   0   0   0   0   0   0 255 255 255 255 255 255
 255 255 255 255 255 255 255 255 255 255 255 255 255 255 255 255
 255 255 255 255  85   0  29  85  85  85   0   0   0   0   0   0
   0 142 255 255 255 255 255 255 255 255 255 255 255 255 255 255
 255 255 255 255 255 255 255 255 170   0   0   0   0   0   0 255
 255 255 255 255 255 255 255 255 255 227   0   0   0   0   0  29
 255 255 255 255 255 255 255 255 255 255 255 255 255 255 255 255
 255 199  29   0   0   0   0  57 255 255 227  29   0   0   0   0
 255 255 255 255 255 255 255 255 255 255 255 255 255 255 255 255
 255 255 255 255 255 170   0   0  85  85  85  29   0   0   0   0
   0   0  57 255 255 255 255 255 255 255 255 255 255 255 255 255
   0   0 199 255 255 170   0   0   0   0   0  57 255 255 255 255
 255 255 255 255 255  85   0  29 255 255 255 199   0   0   0   0
   0  29 255 255 255 255 255 255 255 255 255 255 255 255 255 255
 255 255 255 255 255 255 255 255 255 255 227  57   0  85 227 255
 255 255 227 114   0   0   0   0   0 199 255 255 255 255 255 255
 255 255 255 255 255 255 255 255 255 255 255 255 255 255 255 255
 170   0   0   0   0   0  57 255 255 255 255 255 255 255 255 255
 255  85   0   0   0   0   0 170 255 255 255 255 255 255 255 255
 255 255 255 255 255 255 255 255 142   0   0   0   0   0   0  85
 255 255  29   0   0   0   0  85 255 255 255 255 255 255 255 255
 255 255 255 255 255 255 255 255 255 255 255 255 114   0  29 199
 255 255 255 255 142  29   0   0   0   0 114 255 255 255 255 255
 255 255 255 255 255 255 255 170   0   0 255 255 255 255   0   0
   0   0   0   0 255 255 255 255 255 255 255 255 199   0   0 170
 255 255 255 170   0   0   0   0   0  85 255 255 255 255 255 255
 255 255 255 255 255 255 255 255 255 255 255 255 255 255 255 255
 255 199  29   0  29 227 255 255 255 255 255 255   0   0   0   0
   0 255 255 255 255 255 255 255 255 255 255 255 255 255 255 255
 255 255 255 255 255 255 255 255  85   0   0   0   0   0  85 255
 255 255 255 255 255 255 255 255 170   0   0   0   0   0  85 255
 255 255 255 255 255 255 255 255 255 255 255 255 255 255 255  85
   0   0   0   0   0   0   0 170 255 142   0   0   0   0   0  85
 255 255 255 255 255 255 255 255 255 255 255 255 255 255 255 255
 255 255 227  85   0   0 170 255 255 255 255 255 255  85   0   0
   0   0 170 255 255 255 255 255 255 255 255 255 255 255 255  85
   0  57 255 255 255 255  57   0   0   0   0   0 170 255 255 255
 255 255 255 255  29   0  85 255 255 255 255 114   0   0   0   0
   0 114 255 255 255 255 255 255 255 255 255 255 255 255 255 255
 255 255 255 255 255 255 255 255 170   0   0   0 142 255 255 255
 255 255 255 170   0   0   0   0  85 255 255 255 255 255 255 255
 255 255 255 255 255 255 255 255 255 255 255 255 255 255 255 255
  85   0   0   0   0   0 142 255 255 255 255 255 255 255 255 170
   0   0   0   0   0  85 255 255 255 255 255 255 255 255 255 255
 255 255 255 255 255 227  29   0 114 227  85   0   0   0   0 227
 227  29   0   0   0   0   0 170 255 255 255 255 255 255 255 255
 255 255 255 255 255 255 255 255 255 227  29   0   0  57 255 255
 255 255 255 255 255   0   0   0   0   0 255 255 255 255 255 255
 255 255 255 255 255 255 255  29   0 114 255 255 255 255 114   0
   0   0   0   0 114 255 255 255 255 255 255 114   0   0 227 255
 255 255 255  85   0   0   0   0   0 170 255 255 255 255 255 255
 255 255 255 255 255 255 255 255 255 255 255 255 255 255 255 199
   0   0   0   0 227 255 255 255 255 255 255 114   0   0   0   0
 142 255 255 255 255 255 255 255 255 255 255 255 255 255 255 255
 255 255 255 255 255 255 255 255   0   0   0   0   0   0 170 255
 199 255 255 255 255 227 114   0   0   0   0   0 114 255 255 255
 255 255 255 255 255 255 255 255 255 255 255 255 255 227  29 199
 255 255  85   0   0   0  29 255 114   0  29 114 170  85   0 170
 255 255 255 255 255 255 255 255 255 255 255 255 255 255 255 255
 255  29   0   0   0 142 255 255 255 255 255 255 199   0   0   0
   0  57 255 255 255 255 255 255 255 255 255 255 255 255 227   0
   0 170 255 255 255 255 170   0   0   0   0   0  57 255 255 255
 255 255 227   0   0 142 255 255 255 255 255  29   0   0   0   0
   0 199 255 255 255 255 255 255 255 255 255 255 255 255 255 255
 255 255 255 255 255 255 255  29   0   0   0  85 255 255 255 255
 255 255 255  57   0   0   0   0 170 255 255 255 255 255 255 255
 255 255 255 255 255 255 255 255 255 255 255 255 255 255 255 227
   0   0   0   0   0   0 255 255  57  29  85  85  57   0   0   0
   0   0  57 199 255 255 255 255 255 255 255 255 255 255 255 255
 255 255 255 255 255 255 255 255 255 255  85   0   0   0  85 227
   0  29 227 255 255 255 199 227 255 255 255 255 255 255 255 255
 255 255 255 255 255 255 255 255 114   0   0   0   0 255 255 255
 255 255 255 255 142   0   0   0   0  85 255 255 255 255 255 255
 255 255 255 255 255 255 142   0   0 255 255 255 255 255 255   0
   0   0   0   0   0 255 255 255 255 255  57   0  29 255 255 255
 255 255 255   0   0   0   0   0   0 255 255 255 255 255 255 255
 255 255 255 255 255 255 255 255 255 255 255 255 255 255 142   0
   0   0   0 170 255 255 255 255 255 255 227   0   0   0   0   0
 255 255 255 255 255 255 255 255 255 255 255 255 255 255 255 255
 255 255 255 255 255 255 255 170   0   0   0   0   0   0 255 255
 199 114  57   0   0   0   0  85 142 227 255 255 255 255 255 255
 255 255 255 255 255 255 255 255 255 255 255 255 255 255 255 255
 255 255  29   0   0   0 142 114  29 227 255 255 255 255 255 255
 255 255 255 255 255 255 255 255 255 255 255 255 255 255 255 227
   0   0   0   0  85 255 255 255 255 255 255 255  57   0   0   0
   0 170 255 255 255 255 255 255 255 255 255 255 255 255  85   0
  57 255 255 255 255 255 255  85   0   0   0   0   0 170 255 255
 255 142   0   0 199 255 255 255 255 255 199   0   0   0   0   0
  29 255 255 255 255 255 255 255 255 255 255 255 255 255 255 255
 255 255 255 255 255 255  57   0   0   0   0 227 255 255 255 255
 255 255 114   0   0   0   0  29 255 255 255 255 255 255 255 255
 255 255 255 255 255 255 255 255 255 255 255 255 255 255 255 142
   0   0   0   0   0  85 255 255 255 255 255 255 255 255 255 255
 255 255 255 255 255 255 255 255 255 255 255 255 255 255 255 255
 255 255 255 255 255 255 255 255 255 255   0   0   0   0 170   0
 170 255 255 255 255 255 255 255 255 255 255 255 255 255 255 255
 255 255 255 255 255 255 255 142   0   0   0   0 142 255 255 255
 255 255 255 199   0   0   0   0   0 199 255 255 255 255 255 255
 255 255 255 255 255 255   0   0 114 255 255 255 255 255 255 142
   0   0   0   0   0 114 255 255 227  29   0  85 255 255 255 255
 255 255 170   0   0   0   0   0  85 255 255 255 255 255 255 255
 255 255 255 255 255 255 255 255 255 255 255 255 255 199   0   0
   0   0  57 255 255 255 255 255 255 255  29   0   0   0   0  85
 255 255 255 255 255 255 255 255 255 255 255 255 255 255 255 255
 255 255 255 255 255 255 255  85   0   0   0   0   0 114 255 255
 255 255 255 255 255 255 255 255 255 255 255 255 255 255 255 255
 255 255 255 255 255 255 255 255 255 255 255 255 255 255 255 255
 255 170   0   0   0   0 114  57 255 255 255 255 255 255 255 255
 255 255 255 255 255 255 255 255 255 255 255 255 255 255 255  29
   0   0   0   0 227 255 255 255 255 255 255 114   0   0   0   0
   0 255 255 255 255 255 255 255 255 255 255 255 255 199   0   0
 170 255 255 255 255 255 255 199   0   0   0   0   0  57 255 255
  85   0   0 227 255 255 255 255 255 255 114   0   0   0   0   0
 114 255 255 255 255 255 255 255 255 255 255 255 255 255 255 255
 255 255 255 255 255 114   0   0   0   0 114 255 255 255 255 255
 255 142   0   0   0   0   0 170 255 255 255 255 255 255 255 255
 255 255 255 255 255 255 255 255 255 255 255 255 255 255 255  57
   0   0   0   0   0 170 255 255 255 255 255 255 255 255 255 255
 255 255 255 255 255 255 255 255 255 255 255 255 255 255 255 255
 255 255 255 255 255 255 255 255 255 170   0   0   0  29   0 199
 255 255 255 255 255 255 255 255 255 255 255 255 255 255 255 255
 255 255 255 255 255 255 199   0   0   0   0  29 255 255 255 255
 255 255 227   0   0   0   0   0  85 255 255 255 255 255 255 255
 255 255 255 255 255 114   0   0 255 255 255 255 255 255 255 255
   0   0   0   0   0   0 255 170   0   0 142 255 255 255 255 255
 255 255  85   0   0   0   0   0 170 255 255 255 255 255 255 255
 255 255 255 255 255 255 255 255 255 255 255 255 255  57   0   0
   0   0 170 255 255 255 255 255 227  29  85   0   0   0   0 199
 255 255 255 255 255 255 255 255 255 255 255 255 255 255 255 255
 255 255 255 255 255 255 255   0   0   0   0   0   0 199 255 255
 255 255 255 255 255 255 255 255 255 255 255 255 255 255 255 255
 255 255 255 255 255 255 255 255 255 255 255 255 255 255 255 255
 255  85   0   0   0   0  29 255 255 255 255 255 255 255 255 255
 255 255 255 255 255 255 255 255 255 255 255 255 255 255 142   0
   0   0   0  85 255 255 255 255 255 255  85  57  29   0   0   0
 114 255 255 255 255 255 255 255 255 255 255 255 255  57   0  57
 255 255 255 255 255 255 255 255  85   0   0   0   0   0 170  29
   0  57 255 255 255 255 255 255 255 255  29   0   0   0   0   0
 199 255 255 255 255 255 255 255 255 255 255 255 255 255 255 255
 255 255 255 255 255   0   0   0   0   0 255 255 255 255 255 255
  85  29 142   0   0   0   0 255 255 255 255 255 255 255 255 255
 255 255 255 255 255 255 255 255 255 255 255 255 255 255 199   0
   0   0   0   0   0 255 255 255 255 255 255 255 255 255 255 255
 255 255 255 255 255 255 255 255 255 255 255 255 255 255 255 255
 255 255 255 255 255 255 255 255 255  57   0   0   0   0 142 255
 255 255 255 255 255 255 255 255 255 255 255 255 255 255 255 255
 255 255 255 255 255 255  85   0   0   0   0 170 255 255 255 255
 255 170   0 170   0   0   0   0 170 255 255 255 255 255 255 255
 255 255 255 255 255   0   0 114 255 255 255 255 255 255 255 255
 142   0   0   0   0   0  29   0   0 199 255 255 255 255 255 255
 255 255   0   0   0   0   0   0 255 255 255 255 255 255 255 255
 255 255 255 255 255 255 255 255 255 255 255 255 170   0   0   0
   0  57 255 255 255 255 255 170   0 199  85   0   0   0  57 255
 255 255 255 255 255 255 255 255 255 255 255 255 255 255 255 255
 255 255 255 255 255 255 170   0   0   0   0   0  29 255 255 255
 255 255 255 255 255 255 255 255 255 255 255 255 255 255 255 255
 255 255 255 255 255 255 255 255 255 255 255 255 255 255 255 255
 255   0   0   0   0   0 227 255 255 255 255 255 255 255 255 255
 255 255 255 255 255 255 255 255 255 255 255 255 255 255   0   0
   0   0   0 227 255 255 255 255 227  29 114 170   0   0   0   0
 227 255 255 255 255 255 255 255 255 255 255 255 170   0   0 170
 255 255 255 255 255 255 255 255 199   0   0   0   0   0   0   0
 114 255 255 255 255 255 255 255 255 199   0   0   0   0   0  57
 255 255 255 255 255 255 255 255 255 255 255 255 255 255 255 255
 255 255 255 255 114   0   0   0   0  85 255 255 255 255 227  29
 114 255  29   0   0   0  85 255 255 255 255 255 255 255 255 255
 255 255 255 255 255 255 255 255 255 255 255 255 255 255 114   0
   0   0   0   0  85 255 255 255 255 255 255 255 255 255 255 255
 255 255 255 255 255 255 255 255 255 255 255 255 255 255 255 255
 255 255 255 255 255 255 255 255 170   0   0   0   0  29 255 255
 255 255 255 255 255 255 255 255 255 255 255 255 255 255 255 255
 255 255 255 255 255 199   0   0   0   0   0 255 255 255 255 255
  85  29 255 114   0   0   0   0 255 255 255 255 255 255 255 255
 255 255 255 255  85   0   0 255 255 255 255 255 255 255 255 255
 255   0   0   0   0   0   0  29 227 255 255 255 255 255 255 255
 255 170   0   0   0   0   0  85 255 255 255 255 255 255 255 255
 255 255 255 255 255 255 255 255 255 255 255 255  85   0   0   0
   0 142 255 255 255 255  57  29 255 227   0   0   0   0 170 255
 255 255 255 255 255 255 255 255 255 255 255 255 255 255 255 255
 255 255 255 255 255 255  85   0   0   0   0   0 142 255 255 255
 255 255 255 255 255 255 255 255 255 255 255 255 255 255 255 255
 255 255 255 255 255 255 255 255 255 255 255 255 255 255 255 255
 142   0   0   0   0  85 255 255 255 255 255 255 255 255 255 255
 255 255 255 255 255 255 255 255 255 255 255 255 255 170   0   0
   0   0  57 255 255 255 255 142   0 199 255  57   0   0   0  85
 255 255 255 255 255 255 255 255 255 255 255 255  29   0  29 255
 255 255 255 255 255 255 255 255 255  85   0   0   0   0   0 142
 255 255 255 255 255 255 255 255 255  85   0   0   0   0   0 142
 255 255 255 255 255 255 255 255 255 255 255 255 255 255 255 255
 255 255 255 255  57   0   0   0   0 170 255 255 255  85  29 227
 255 170   0   0   0   0 199 255 255 227 199 255 255 255 255 255
 255 255 255 255 255 255 255 255 255 255 255 255 255 255   0   0
   0   0   0   0 170 255 255 255 255 255 255 255 255 255 255 255
 255 255 255 255 255 255 255 255 255 255 255 255 255 255 255 255
 255 255 255 255 255 255 255 255  85   0   0   0   0 170 255 255
 255 255 255 255 255 255 255 255 255 255 255 255 255 255 255 255
 255 255 255 255 255 142   0   0   0   0  85 255 255 255 170   0
 170 255 255   0   0   0   0 114 255 255 255 170 255 255 255 255
 255 255 255 227   0   0  85 255 255 255 255 255 255 255 255 255
 255 142   0   0   0   0  57 255 255 255 255 255 255 255 255 255
 255  85   0   0   0   0   0 170 255 255 255 255 255 255 255 255
 255 255 255 255 255 255 255 255 255 255 255 255   0   0   0   0
   0 142 255 255  85   0 170 255 255  85   0   0   0   0 255 255
 142  29  85 255 255 255 255 255 255 255 255 255 255 255 255 255
 255 255 255 255 255 227   0   0   0   0   0   0 227 255 255 255
 255 255 255 255 255 255 255 255 255 255 255 255 255 255 255 255
 255 255 255 255 255 255 255 255 255 255 255 255 255 255 255 255
   0   0   0   0   0 227 255 255 255 255 255 255 255 255 255 255
 255 255 255 255 255 255 255 255 255 255 255 255 255  85   0   0
   0   0  57 255 255 170   0  85 255 255 170   0   0   0   0 170
 255 199  57   0 255 255 255 255 255 255 255 142   0   0 170 255
 255 255 255 255 255 255 255 255 255 199   0   0   0   0 199 255
 255 255 255 255 255 255 255 255 255   0   0   0   0   0   0 170
 255 255 255 255 255 255 255 255 255 255 255 255 255 255 255 255
 255 255 255 255   0   0   0   0   0  29 114  29   0 170 255 255
 255  29   0   0   0   0  57  57   0  29 227 255 255 255 255 255
 255 255 255 255 255 255 255 255 255 255 255 255 255 142   0   0
   0   0   0   0 255 255 255 255 255 255 255 255 255 255 255 255
 255 255 255 255 255 255 255 255 255 255 255 255 255 255 255 255
 255 255 255 255 255 255 255 199   0   0   0   0   0 255 255 255
 255 255 255 255 255 255 255 255 255 255 255 255 255 255 255 255
 255 255 255 255 255  85   0   0   0   0   0 114  57   0  85 255
 255 255 114   0   0   0   0  29  85   0   0 170 255 255 255 255
 255 255 199   0   0   0  57 227 255 255 255 255 255 255 255 255
 255 255   0   0   0  85 255 255 255 255 255 255 255 255 255 255
 114   0   0   0   0   0   0 114 255 255 255 255 255 255 255 255
 255 255 255 255 255 255 255 255 255 255 255 255   0   0   0   0
   0   0   0   0 170 255 255 255 255   0   0   0   0   0   0   0
  85 255 255 255 255 255 255 255 255 255 255 255 255 255 255 255
 255 255 255 255 227  29   0   0   0   0   0   0 114 255 255 255
 255 255 255 255 255 255 255 255 255 255 255 255 255 255 255 255
 255 255 255 255 255 255 255 255 255 255 255 255 255 255 255 142
   0   0   0   0  57 255 255 255 255 255 255 255 255 255 255 255
 255 255 255 255 255 255 255 255 255 255 255 255 255  85   0   0
   0   0   0   0   0  85 255 255 255 255  85   0   0   0   0   0
   0  29 227 255 255 255 255 255 255   0   0   0   0   0   0   0
   0   0 142 255 255 255 255 255 255 255  85   0   0 227 255 255
 255 255 255 255 199   0   0   0   0   0   0   0   0   0   0   0
   0   0   0 142 255 255 255 255 255 255 255 255 255 255 255 255
 255 255 255 255  57   0   0   0   0   0  29 170 255 255 255 255
 255   0   0   0   0   0   0 142 255 255 255 255 255 255 255 255
 255 255 255 255 255 255 255 255 255  85   0   0   0   0   0   0
   0   0   0   0   0   0   0   0  85 255 255 255 255 255 255 255
 255 255 255 255 255 255 255 255 255 255 255 255 255 255 255 255
 255 255 255 255 255 255 255  57   0   0   0   0  85 255 255 255
 255 255 255 255 255 255 255 255 255 255 255 255 255 255 255 255
 255 255 255 255 255 142   0   0   0   0   0   0 114 255 255 255
 255 255  85   0   0   0   0   0  85 227 255 255 255 255 255 255
 255  85  85  85  85  85  85  85  85  85 199 255 255 255 255 255
 255 255 142   0 114 255 255 255 255 255 255 255 199  85  85  85
  85  85  85  85  85  85  85  85  85  85  85 199 255 255 255 255
 255 255 255 255 255 255 255 255 255 255 255 255 199   0   0   0
   0 114 227 255 255 255 255 255 255  57   0   0   0 114 227 255
 255 255 255 255 255 255 255 255 255 255 255 255 255 255 255 255
 255 142  85  85  85  85  85  85  85  85  85  85  85  85  85  85
 142 255 255 255 255 255 255 255 255 255 255 255 255 255 255 255
 255 255 255 255 255 255 255 255 255 255 255 255 255 255 227   0
   0   0  57  85 170 255 255 255 255 255 255 255 255 255 255 255
 255 255 255 255 255 255 255 255 255 255 255 255 255 255  29   0
   0   0  57 199 255 255 255 255 255 255 142   0   0   0  57 199
 255 255 255 255 255 255 255 255 255 255 255 255 255 255 255 255
 255 255 255 255 255 255 255 255 255 255 227 170 255 255 255 255
 255 255 255 255 255 255 255 255 255 255 255 255 255 255 255 255
 255 255 255 255 255 255 255 255 255 255 255 255 255 255 255 255
 255 255 255 255 255 199 170 170 227 255 255 255 255 255 255 255
 255 227 170 170 227 255 255 255 255 255 255 255 255 255 255 255
 255 255 255 255 255 255 255 255 255 255 255 255 255 255 255 255
 255 255 255 255 255 255 255 255 255 255 255 255 255 255 255 255
 255 255 255 255 255 255 255 255 255 255 255 255 255 255 255 255
 255 255 255 255 255 255 255 170 227 255 255 255 255 255 255 255
 255 255 255 255 255 255 255 255 255 255 255 255 255 255 255 255
 255 255 255 255 255 255 227 170 170 199 255 255 255 255 255 255
 255 255 255 170 170 199 255 255 255 255 255 255 255 255 255 255
 255 255 255 255 255 255 255 255 255 255 255 255 255 255 255 255
 255 255 255 255 255 255 255 255 255 255 255 255 255 255 255 255
 255 255 255 255 255 255 255 255 255 255 255 255 255 255 255 255
 255 255 255 255 255 255 255 255 255 255 255 255 255 255 255 255
 255 255 255 255 255 255 255 255 255 255 255 255 255 255 255 255
 255 255 255 255 255 255 255 255 255 255 255 255 255 255 255 255
 255 255 255 255 255 255 255 255 255 255 255 255 255 255 255 255
 255 255 255 255 255 255 255 255 255 255 255 255 255 255 255 255
 255 255 255 255 255 255 255 255 255 255 255 255 255 255 255 255
 255 255 255 255 255 255 255 255 255 255 255 255 255 255 255 255
 255 255 255 255 255 255 255 255 255 255 255 255 255 255 255 255
 255 255 255 255 255 255 255 255 255 255 255 255 255 255 255 255
 255 255 255 255 255 255 255 255 255 255 255 255 255 255 255 255
 255 255 255 255 255 255 255 255 255 255 255 255 255 255 255 255
 255 255 255 255 255 255 255 255 255 255 255 255 255 255 255 255
 255 255 255 255 255 255 255 255 255 255 255 255 255 255 255 255
 255 255 255 255 255 255 255 255 255 255 255 255 255 255 255 255
 255 255 255 255 255 255 255 255 255 255 255 255 255 255 255 255
 255 255 255 255 255 255 255 255 255 255 255 255 255 255 255 255
 255 255 255 255 255 255 255 255 255 255 255 255 255 255 255 255
 255 255 255 255 255 255 255 255 255 255 255 255 255 255 255 255
 255 255 255 255 255 255 255 255 255 255 255 255 255 255 255 255
 255 255 255 255 255 255 255 255 255 255 255 255 255 255 255 255
 255 255 255 255 255 255 255 255 255 255 255 255 255 255 255 255
 255 255 255 255 255 255 255 255 255 255 255 255 255 255 255 255
 255 255 255 255 255 255 255 255 255 255 255 255 255 255 255 255
 255 255 255 255 255 255 255 255 255 255 255 255 255 255 255 255
 255 255 255 255 255 255 255 255 255 255 255 255 255 255 255 255
 255 255 255 255 255 255 255 255 255 255 255 255 255 255 255 255
 255 255 255 255 255 255 255 255 255 255 255 255 255 255 255 255
 255 255 255 255 255 255 255 255 255 255 255 255 255 255 255 255
 255 255 255 255 255 255 255 255 255 255 255 255 255 255 255 255
 255 255 255 255 255 255 255 255 255 255 255 255 255 255 255 255
 255 255 255 255 255 255 255 255 255 255 255 255 255 255 255 255
 255 255 255 255 255 255 255 255 255 255 255 255 255 255 255 255
 255 255 255 255 255 255 255 255 255 255 255 255 255 255 255 255
 255 255 255 255 255 255 255 255 255 255 255 255 255 255 255 255
 255 255 255 255 255 255 255 255 255 255 255 255 255 255 255 255
 255 255 255 255 255 255 255 255 255 255 255 255 255 255 255 255
 255 255 255 255 255 255 255 255 255 255 255 255 255 255 255 255
 255 255 255 255 255 255 255 255 255 255 255 255 255 255 255 255
 255 255 255 255 255 255 255 255 255 255 255 255 255 255 255 255
 255 255 255 255 255 255 255 255 255 255 255 255 255 255 255 255
 255 255 255 255 255 255 255 255 255 255 255 255 255 255 255 255
 255 255 255 255 255 255 255 255 255 255 255 255 255 255 255 255
 255 255 255 255 255 255 255 255 255 255 255 255 255 255 255 255
 255 255 255 255 255 255 255 255 255 255 255 255 255 255 255 255
 255 255 255 255 255 255 255 255 255 255 255 255 255 255 255 255
 255 255 255 255 255 255 255 255 255 255 255 255 255 255 255 255
 255 255 255 255 255 255 255 255 255 255 255 255 255 255 255 255
 255 255 255 255 255 255 255 255 255 255 255 255 255 255 255 255
 255 255 255 255 255 255 255 255 255 255 255 255 255 255 255 255
 255 255 255 255 255 255 255 255 255 255 255 255 255 255 255 255
 255 255 255 255 255 255 255 255 255 255 255 255 255 255 255 255
 255 255 255 255 255 255 255 255 255 255 255 255 255 255 255 255
 255 255 255 255 255 255 255 255 255 255 255 255 255 255 255 255
 255 255 255 255 255 255 255 255 255 255 255 255 255 255 255 255
 255 255 255 255 255 255 255 255 255 255 255 255 255 255 255 255
 255 255 255 255 255 255 255 255 255 255 255 255 255 255 255 255
 255 255 255 255 255 255 255 255 255 255 255 255 255 255 255 255
 255 255 255 255 255 255 255 255 255 255 255 255 255 255 255 255
 255 255 255 255 255 255 255 255 255 255 255 255 255 255 255 255
 255 255 255 255 255 255 255 255 255 255 255 255 255 255 255 255
 255 255 255 255 255 255 255 255 255 255 255 255 255 255 255 255
 255 255 255 255 255 255 255 255 255 255 255 255 255 255 255 255
 255 255 255 255 255 255 255 255 255 255 255 255 255 255 255 255
 255 255 255 255 255 255 255 255 255 255 255 255 255 255 255 255
 255 255 255 255 255 255 255 255 255 255 255 255 255 255 255 255
 255 255 255 255 255 255 255 255 255 255 255 255 255 255 255 255
 255 255 255 255 255 255 255 255 255 255 255 255 255 255 255 255
 255 255 255 255 255 255 255 255 255 255 255 255 255 255 255 255
 255 255 255 255 255 255 255 255 255 255 255 255 255 255 255 255
 255 255 255 255 255 255 255 255 255 255 255 255 255 255 255 255
 255 255 255 255 255 255 255 255 255 255 255 255 255 255 255 255
 255 255 255 255 255 255 255 255 255 255 255 255 255 255 255 255
 255 255 255 255 255 255 255 255 255 255 255 255 255 255 255 255
 255 255 255 255 255 255 255 255 255 255 255 255 255 255 255 255
 255 255 255 255 255 255 255 255 255 255 255 255 255 255 255 255
 255 255 255 255 255 255 255 255 255 255 255 255 255 255 255 255
 255 255 255 255 255 255 255 255 255 255 255 255 255 255 255 255
 255 255 255 255 255 255 255 255 255 255 255 255 255 255 255 255
 255 255 255 255 255 255 255 255 255 255 255 255 255 255 255 255
 255 255 255 255 255 255 255 255 255 255 255 255 255 255 255 255
 255 255 255 255 255 255 255 255 255 255 255 255 255 255 255 255
 255 255 255 255 255 255 255 255 255 255 255 255 255 255 255 255
 255 255 255 255 255 255 255 255 255 255 255 255 255 255 255 255
 255 255 255 255 255 255 255 255 255 255 255 255 255 255 255 255
 255 255 255 255 255 255 255 255 255 255 255 255 255 255 255 255
 255 255 255 255 255 255 255 255 255 255 255 255 255 255 255 255
 255 255 255 255 255 255 255 255 255 255 255 255 255 255 255 255
 255 255 255 255 255 255 255 255 255 255 255 255 255 255 255 255
 255 255 255 255 255 255 255 255 255 255 255 255 255 255 255 255
 255 255 255 255 255 255 255 255 255 255 255 255 255 255 255 255
 255 255 255 255 255 255 255 255 255 255 255 255 255 255 255 255
 255 255 255 255 255 255 255 255 255 255 255 255 255 255 255 255
 255 255 255 255 255 255 255 255 255 255 255 255 255 255 255 255
 255 255 255 255 255 255 255 255 255 255 255 255 255 255 255 255
 255 255 255 255 255 255 255 255 255 255 255 255 255 255 255 255
 255 255 255 255 255 255 255 255 255 255 255 255 255 255 255 255
 255 255 255 255 255 255 255 255 255 255 255 255 255 255 255 255
 255 255 255 255 255 255 255 255 255 255 255 255 255 255 255 255
 255 255 255 255 255 255 255 255 255 255 255 255 255 255 255 255
 255 255 255 255 255 255 255 255 255 255 255 255 255 255 255 255
 255 255 255 255 255 255 255 255 255 255 255 255 255 255 255 255
 255 255 255 255 255 255 255 255 255 255 255 255 255 255 255 255
 255 255 255 255 255 255 255 255 255 255 255 255 255 255 255 255
 255 255 255 255 255 255 255 255 255 255 255 255 255 255 255 255
 255 255 255 255 255 255 255 255 255 255 255 255 255 255 255 255
 255 255 255 255 255 255 255 255 255 255 255 255 255 255 255 255
 255 255 255 255 255 255 255 255 255 255 255 255 255 255 255 255
 255 255 255 255 255 255 255 255 255 255 255 255 255 255 255 255
 255 255 255 255 255 255 255 255 255 255 255 255 255 255 255 255
 255 255 255 255 255 255 255 255 255 255 255 255 255 255 255 255
 255 255 255 255 255 255 255 255 255 255 255 255 255 255 255 255
 255 255 255 255 255 255 255 255 255 255 255 255 255 255 255 255
 255 255 255 255 255 255 255 255 255 255 255 255 255 255 255 255
 255 255 255 255 255 255 255 255 255 255 255 255 255 255 255 255
 255 255 255 255 255 255 255 255 255 255 255 255 255 255 255 255
 255 255 255 255 255 255 255 255 255 255 255 255 255 255 255 255
 255 255 255 255 255 255 255 255 255 255 255 255 255 255 255 255
 255 255 255 255 255 255 255 255 255 255 255 255 255 255 255 255
 255 255 255 255 255 255 255 255 255 255 255 255 255 255 255 255
 255 255 255 255 255 255 255 255 255 255 255 255 255 255 255 255
 255 255 255 255 255 255 255 255 255 255 255 255 255 255 255 255
 255 255 255 255 255 255 255 255 255 255 255 255 255 255 255 255
 255 255 255 255 255 255 255 255 255 255 255 255 255 255 255 255
 255 255 255 255 255 255 255 255 255 255 255 255 255 255 255 255
 255 255 255 255 255 255 255 255 255 255 255 255 255 255 255 255
 255 255 255 255 255 255 255 255 255 255 255 255 255 255 255 255
 255 255 255 255 255 255 255 255 255 255 255 255 255 255 255 255
 255 255 255 255 255 255 255 255 255 255 255 255 255 255 255 255
 255 255 255 255 255 255 255 255 255 255 255 255 255 255 255 255
 255 255 255 255 255 255 255 255 255 255 255 255 255 255 255 255
 255 255 255 255 255 255 255 255 255 255 255 255 255 255 255 255
 255 255 255 255 255 255 255 255 255 255 255 255 255 255 255 255
 255 255 255 255 255 255 255 255 255 255 255 255 255 255 255 255
 255 255 255 255 255 255 255 255 255 255 255 255 255 255 255 255
 255 255 255 255 255 255 255 255 255 255 255 255 255 255 255 255
 255 255 255 255 255 255 255 255 255 255 255 255 255 255 255 255
 255 255 255 255 255 255 255 255 255 255 255 255 255 255 255 255
 255 255 255 255 255 255 255 255 255 255 255 255 255 255 255 255
 255 255 255 255 255 255 255 255 255 255 255 255 255 255 255 255
 255 255 255 255 255 255 255 255 255 255 255 255 255 255 255 255
 255 255 255 255 255 255 255 255 255 255 255 255 255 255 255 255
 255 255 255 255 255 255 255 255 255 255 255 255 255 255 255 255
 255 255 255 255 255 255 255 255 255 255 255 255 255 255 255 255
 255 255 255 255 255 255 255 255 255 255 255 255 255 255 255 255
 255 255 255 255 255 255 255 255 255 255 255 255 255 255 255 255
 255 255 255 255 255 255 255 255 255 255 255 255 255 255 255 255
 255 255 255 255 255 255 255 255 255 255 255 255 255 255 255 255
