P2
5 3 #breite höhe
255 #hellster grauwert
# folgendes Bild:

# H H I
# HHH I
# H H I

# wobei
# " " = 255 = 0xff
# "H" =   0 = 0x00
# "I" = 128 = 0x80

0	255	0	255	128
0	0	0	255	128
0	255	0	255	128

# Also Histogramm:
# 0:	7
# 128:	3
# 255:	5
# rest:	0

# -> Codierung:
# 0:	0
# 128:	128 = 0x80 
# 255:	192 = 0xc0

# Zielvorgabe:
# 0000000   M   H   a                                                    
# 0000003   00005   00003                                                
# 0000007   00007   00000   00000   00000   00000   00000   00000   00000
# 0000017   00000   00000   00000   00000   00000   00000   00000   00000
# 0000027   00000   00000   00000   00000   00000   00000   00000   00000
# 0000037   00000   00000   00000   00000   00000   00000   00000   00000
# 0000047   00000   00000   00000   00000   00000   00000   00000   00000
# 0000057   00000   00000   00000   00000   00000   00000   00000   00000
# 0000067   00000   00000   00000   00000   00000   00000   00000   00000
# 0000077   00000   00000   00000   00000   00000   00000   00000   00000
# 0000087   00000   00000   00000   00000   00000   00000   00000   00000
# 0000097   00000   00000   00000   00000   00000   00000   00000   00000
# 00000a7   00000   00000   00000   00000   00000   00000   00000   00000
# 00000b7   00000   00000   00000   00000   00000   00000   00000   00000
# 00000c7   00000   00000   00000   00000   00000   00000   00000   00000
# 00000d7   00000   00000   00000   00000   00000   00000   00000   00000
# 00000e7   00000   00000   00000   00000   00000   00000   00000   00000
# 00000f7   00000   00000   00000   00000   00000   00000   00000   00000
# 0000107   00003   00000   00000   00000   00000   00000   00000   00000
# 0000117   00000   00000   00000   00000   00000   00000   00000   00000
# 0000127   00000   00000   00000   00000   00000   00000   00000   00000
# 0000137   00000   00000   00000   00000   00000   00000   00000   00000
# 0000147   00000   00000   00000   00000   00000   00000   00000   00000
# 0000157   00000   00000   00000   00000   00000   00000   00000   00000
# 0000167   00000   00000   00000   00000   00000   00000   00000   00000
# 0000177   00000   00000   00000   00000   00000   00000   00000   00000
# 0000187   00000   00000   00000   00000   00000   00000   00000   00000
# 0000197   00000   00000   00000   00000   00000   00000   00000   00000
# 00001a7   00000   00000   00000   00000   00000   00000   00000   00000
# 00001b7   00000   00000   00000   00000   00000   00000   00000   00000
# 00001c7   00000   00000   00000   00000   00000   00000   00000   00000
# 00001d7   00000   00000   00000   00000   00000   00000   00000   00000
# 00001e7   00000   00000   00000   00000   00000   00000   00000   00000
# 00001f7   00000   00000   00000   00000   00000   00000   00000   00005
# 00000207  00 c0 00 c0 80 00 00 00  c0 80 00 c0 00 c0 80     |...............|
# 00000216